<svg xmlns="http://www.w3.org/2000/svg" viewBox="0 0 1883.7 942.91"><defs><style>.cls-1{fill:#d5b108;}</style></defs><g id="Layer_2" data-name="Layer 2"><g id="Layer_1-2" data-name="Layer 1"><path class="cls-1" d="M1040.55,499.42a121.48,121.48,0,0,1-14.7-.92q-19.69-2.44-28.93-11.46t-9.22-19.42q0-11.3,10.16-20.48t28.93-9.17a86.65,86.65,0,0,1,27.21,4.89,108.08,108.08,0,0,1,15.48,6.27q9.23,4.44,18.3,9t14.07,7.33a187.79,187.79,0,0,0,25.49-30.41,424.37,424.37,0,0,0,22.36-37q10.62-19.72,21.58-39.9t23-39.28a240,240,0,0,1,26.74-35,141.77,141.77,0,0,0-35.81-15.14,151.75,151.75,0,0,0-40.18-5.35,138.54,138.54,0,0,0-15.8.92q-8,.92-16.1,2.45Q1084,272.9,1064,286.19t-30.18,29Q1023.66,331,1023.66,345a31,31,0,0,0,5.63,18.34q5.63,8,17.2,11.31a54,54,0,0,0,14.7,2.45,37.38,37.38,0,0,0,18-4.13,45.54,45.54,0,0,0,13-10.24,50.73,50.73,0,0,0,8-11.92,30.62,30.62,0,0,0,3-9.48c0-1.42.94-2.14,2.81-2.14q4.38,0,3.44,5.2a39.28,39.28,0,0,1-9.38,21.24,54.9,54.9,0,0,1-18.76,14.06,53.19,53.19,0,0,1-22.52,5,54,54,0,0,1-15.64-2.45,52.49,52.49,0,0,1-24.23-17q-9.86-12.08-9.86-28.59,0-16.2,11.11-32.55t35.49-29.5q24.4-13.14,63.8-18.65a191,191,0,0,1,26.59-1.84,185.28,185.28,0,0,1,84.12,20.18l7.82-8.87q2.82-2.43,8-6.11t10.47-7a48.25,48.25,0,0,1,7.82-4.28,19.79,19.79,0,0,1,6.57-1.53c1.25,0,1.88.31,1.88.92q0,2.14-5,5.19a36.67,36.67,0,0,0-5.63,4.74c-1.67,1.74-2.92,3.11-3.75,4.13q-4.7,6.42-7.35,10.39t-7,10.4a150.72,150.72,0,0,1,46.92,48.15q18.12,29.5,18.13,67.4a144.74,144.74,0,0,1-.93,16.21,87.26,87.26,0,0,1-34.56,62.36,112.94,112.94,0,0,1-32.21,17,115.33,115.33,0,0,1-37.06,6,113.84,113.84,0,0,1-14.39-.92q-30.66-3.67-50.51-9.63a331.53,331.53,0,0,1-34.87-12.38Q1075.9,499.41,1040.55,499.42Zm-6.88-9.48a85.81,85.81,0,0,0,32.21-4.13,105.19,105.19,0,0,0,27.84-14.21q-11.27-5.19-22.83-10.85a239.34,239.34,0,0,0-24.4-10.25,49.3,49.3,0,0,0-15-2.75q-11.57,0-17.51,6.27T1008,467.93q0,8.25,6.56,14.83T1033.67,489.94Zm165.13.31q25,0,44.25-10.55A89.73,89.73,0,0,0,1274.17,452a79.26,79.26,0,0,0,14.07-37,114.69,114.69,0,0,0,.94-14.67q0-33.31-14.54-60.68a143.21,143.21,0,0,0-38.31-46q-13.77,21.09-28.3,44.63t-29.25,46.62q-14.7,23.08-28.61,42.65a299.88,299.88,0,0,1-26.12,32.4,66.19,66.19,0,0,0-5.47,5.35,33.58,33.58,0,0,1-6.72,5.66,250.64,250.64,0,0,0,33.46,11.61q18.77,5.2,44.1,7.34a46.84,46.84,0,0,0,4.84.31Z"/><path class="cls-1" d="M1292.93,489.94q13.14-26.28,27.37-55.18t29.24-58.24q15-29.34,29.71-55.94a94.24,94.24,0,0,1,9.85-14.37,15.2,15.2,0,0,1,12-5.19,28.17,28.17,0,0,1,6.57.91,17.26,17.26,0,0,0,7.19.31q-4.07,4.29-11.1,15t-15.64,25.68q-8.61,15-18.14,32.25T1351.26,410q-9.23,17.58-17,32.86,6.26-7.94,12.83-15a141.79,141.79,0,0,1,12.82-12.23,140.26,140.26,0,0,1,17.36-12.83,177.2,177.2,0,0,1,21-11.62q10.47-4.89,16.73-4.89a11.46,11.46,0,0,1,3.13.3q-6.88,12.24-12,21.71t-10.63,20.48q-5.49,11-9.54,20.94a91,91,0,0,0-5.32,16.36,44.69,44.69,0,0,0-.94,8.25q0,4.89,1.88,6.57a6,6,0,0,0,4.06,1.68q5.32,0,11.58-6.42a98.13,98.13,0,0,0,12.19-15.74q5.94-9.31,10.79-18.19t7.35-13.76q1.88-3.36,3.75-3.36c1.25,0,1.88.82,1.88,2.45a11.42,11.42,0,0,1-.94,3.67q-4.06,8-9.22,17.88a159.06,159.06,0,0,1-11.58,18.95,67,67,0,0,1-14.07,14.83,26.7,26.7,0,0,1-16.42,5.81q-6.25,0-12.82-4.28t-6.57-15.59a44.39,44.39,0,0,1,.63-7.19,60.18,60.18,0,0,1,2.19-8.71,65.72,65.72,0,0,1,6.25-13.6q4.38-7.49,11.26-18.8c2.08-3.47,3.13-6.22,3.13-8.26,0-2.44-1.25-3.67-3.76-3.67-2.08,0-4.9,1-8.44,3.06s-8,5.61-13.45,10.7a236.75,236.75,0,0,0-19.39,21.4q-11.56,14.07-24.7,39.44-2.19,4-4.85,4.12l-7,.46q-2.8.3-5.63.46A7.88,7.88,0,0,0,1292.93,489.94Z"/><path class="cls-1" d="M1385.19,585q-16.26,0-23.14-6.26t-6.88-14.83a22.88,22.88,0,0,1,1.25-7.95q1.24-3.36,3.75-8.56a45.93,45.93,0,0,1,12.2-15.28,72.07,72.07,0,0,1,16.89-10.4,189.34,189.34,0,0,1,37.06-11.92q20.79-4.59,39.87-10.09a155.79,155.79,0,0,0,11-23.08q5-13,9.07-25.37t6.56-20.33q-3.75,6.74-9.53,16.35a187.85,187.85,0,0,1-13,18.81,80.84,80.84,0,0,1-15.48,15.28,28.83,28.83,0,0,1-17.36,6.12,28.28,28.28,0,0,1-8.29-1.53,18.42,18.42,0,0,1-8.44-5.66q-3.6-4.12-3.6-12.38a33,33,0,0,1,3.91-15.44q3.9-7.49,7.35-14.52a4.13,4.13,0,0,1-2-.61,2,2,0,0,1-1.1-1.83,5.32,5.32,0,0,1,.63-2.45q1.25-2.44,2.81-5.2a51.23,51.23,0,0,0,2.82-5.81q4.68-9.46,9.38-18.18t8.13-15.44q3.43-6.72,11.88-6.73h19.39q-2.19,1.83-5.47,4.13a22.7,22.7,0,0,0-6.1,6.88q-8.45,14.06-14.7,27t-13.44,27.67a72.15,72.15,0,0,0-5,12.84,39.66,39.66,0,0,0-1.56,10.09q0,10.08,6.88,10.08,7.5,0,18.14-11.92a206.84,206.84,0,0,0,17.67-24q8.91-13.91,17.2-28.73t14.54-27.36q3.43-6.72,12.2-6.73h17.2a40.62,40.62,0,0,0-13.92,15.9q-4.85,9.78-10.79,25.07-6.57,16.81-12.35,34.69t-13,35.92a142.48,142.48,0,0,0,23.3-10.39,63.36,63.36,0,0,0,22-20.18,208,208,0,0,0,12.35-20q5.16-9.63,7.35-13.91c.83-2,2-3.06,3.44-3.06s2.19.92,2.19,2.75a7.44,7.44,0,0,1-.94,3.37q-8.13,15.9-14.54,26.75a96.75,96.75,0,0,1-14.07,18.64A78.69,78.69,0,0,1,1510.29,491a206.64,206.64,0,0,1-27.84,12.08q-7.5,13.14-17,27.36A190.36,190.36,0,0,1,1443.83,557a108.52,108.52,0,0,1-26.58,20.18A66.75,66.75,0,0,1,1385.19,585Zm-7.51-6.11q10.33,0,21.27-6.11a117.15,117.15,0,0,0,21.27-15.44,252.3,252.3,0,0,0,18.92-19q8.59-9.63,13.92-17a57.28,57.28,0,0,0,3.44-5.5q1.88-3.37,3.75-6.42l-33.62,8.71a219.4,219.4,0,0,0-31.74,10.54q-15,6.12-23.62,17.43t-8.6,20.18a12,12,0,0,0,3.6,9Q1369.87,578.91,1377.68,578.9Z"/><path class="cls-1" d="M1620.37,488.41a16.61,16.61,0,0,1-7.82-1.53,17.5,17.5,0,0,1-7.66-6.72q-3.29-4.89-3.29-13.76a69.58,69.58,0,0,1,2.82-17.73q-3.75,5.81-9.7,14.22a95.72,95.72,0,0,1-12.82,14.82,44.26,44.26,0,0,1-11.26,8,23.49,23.49,0,0,1-9.69,2.45q-8.15,0-13.14-7.19t-5-18.8q0-12.22,6.25-27.82t20.33-32.4a70.09,70.09,0,0,1,22-17.27q13-6.57,25.49-6.58a41.44,41.44,0,0,1,13.76,2.3,29.17,29.17,0,0,1,11.57,7.49,6.64,6.64,0,0,1,2.19,4.89,3.72,3.72,0,0,1-1.56,3,4.54,4.54,0,0,1-4.07.62q-3.45-10.71-14.7-10.7-5.32,0-12.2,3.36-10.64,5.51-22,18a182.42,182.42,0,0,0-19.86,26,74.25,74.25,0,0,0-3.91,7,122.78,122.78,0,0,0-5.16,11.62,59,59,0,0,0-3.44,12.53,18,18,0,0,0-.32,2.6v2.29q0,10.1,7.82,10.09,9.39,0,21.27-13.45a176.67,176.67,0,0,0,14.7-20.48q6.57-10.69,13.45-22.93a138.56,138.56,0,0,1,8.75-13.76q4.07-5.49,11.57-5.5a26.75,26.75,0,0,1,6.89.92,17,17,0,0,0,7.19.3,55,55,0,0,0-6.73,9.18q-4.21,6.72-8.91,15.28a191.22,191.22,0,0,0-8.44,17.43,101.64,101.64,0,0,0-5.32,15.28c-.21,1.22-.47,3-.78,5.2a40.46,40.46,0,0,0-.47,4.89q0,8.56,5,8.56t10.79-5.81A91.18,91.18,0,0,0,1645.39,460q5.63-8.55,10.32-17.27t7.5-14.22q1.26-3,3.76-3.05c1,0,1.56.71,1.56,2.14a11.55,11.55,0,0,1-.94,3.36q-3.75,7.65-9.07,17.27A213.8,213.8,0,0,1,1647,466.86a83.49,83.49,0,0,1-13,15Q1627.25,487.8,1620.37,488.41Z"/><path class="cls-1" d="M1633.19,489.94q11.25-22.31,21.73-44.17T1676.35,404q6.26-11,10.47-15.44t11.42-4.43a20.75,20.75,0,0,1,5.32.76,21.34,21.34,0,0,0,5.63.77,9.44,9.44,0,0,0,2.81-.31q-4.38,2.44-11.26,12.08t-14.07,22.16q-7.2,12.54-12.82,23.54,5.93-7,12.35-14.06a134.67,134.67,0,0,1,14.23-13.46,176.52,176.52,0,0,1,18-13.29,154.71,154.71,0,0,1,20.49-11.47q10-4.58,15.95-4.58a11.38,11.38,0,0,1,3.12.3q-6.88,11.92-12,21.55t-10.47,20.49q-5.32,10.85-9.54,20.79a83.73,83.73,0,0,0-5.48,16.66,32.32,32.32,0,0,0-.93,7.33c0,3.27.62,5.4,1.87,6.42a6.31,6.31,0,0,0,4.07,1.53q5.94,0,12.51-6.27a89.91,89.91,0,0,0,12.66-15.43q6.11-9.18,11-17.89t7-13.3a10,10,0,0,1,1.87-2.9,3.14,3.14,0,0,1,1.88-.46c1.25,0,1.88.82,1.88,2.45a7.53,7.53,0,0,1-.94,3.36q-3.75,7-8.92,16.81a174.65,174.65,0,0,1-11.72,19.11,75.3,75.3,0,0,1-14.39,15.59,26.46,26.46,0,0,1-16.89,6.27q-6.26,0-13-4.28t-6.72-15.9a44.21,44.21,0,0,1,.62-7.18,53.32,53.32,0,0,1,2.19-8.41q2.51-6.1,6-13.14a207.23,207.23,0,0,1,11.26-19.26,20,20,0,0,0,2.65-5.2,12.41,12.41,0,0,0,.47-3.06c0-2.44-1.15-3.67-3.44-3.67-1.87,0-4.64,1-8.29,3.06s-8.18,5.61-13.6,10.7a206.9,206.9,0,0,0-18.61,20.79q-10.79,13.45-24.86,39.74-2.19,4-4.85,4.28c-1.77.2-4.22.41-7.35.61q-3.12.3-5.94.46A7.86,7.86,0,0,0,1633.19,489.94Z"/><path class="cls-1" d="M1835.53,488.41a16.63,16.63,0,0,1-7.82-1.53,17.5,17.5,0,0,1-7.66-6.72q-3.29-4.89-3.28-13.76a70,70,0,0,1,2.81-17.73q-3.75,5.81-9.69,14.22a96.8,96.8,0,0,1-12.82,14.82,44.61,44.61,0,0,1-11.26,8,23.53,23.53,0,0,1-9.7,2.45q-8.13,0-13.13-7.19t-5-18.8q0-12.22,6.26-27.82t20.33-32.4a69.94,69.94,0,0,1,22-17.27q13-6.57,25.49-6.58a41.35,41.35,0,0,1,13.76,2.3,29.1,29.1,0,0,1,11.57,7.49,6.64,6.64,0,0,1,2.19,4.89,3.72,3.72,0,0,1-1.56,3,4.52,4.52,0,0,1-4.06.62q-3.45-10.71-14.7-10.7-5.32,0-12.2,3.36-10.63,5.51-22,18a183.16,183.16,0,0,0-19.86,26,76.66,76.66,0,0,0-3.91,7q-2.65,5.2-5.16,11.62a59.54,59.54,0,0,0-3.44,12.53,17.58,17.58,0,0,0-.31,2.6v2.29q0,10.1,7.82,10.09,9.38,0,21.26-13.45a176.67,176.67,0,0,0,14.7-20.48q6.57-10.69,13.45-22.93a140.31,140.31,0,0,1,8.76-13.76q4.05-5.49,11.57-5.5a26.73,26.73,0,0,1,6.88.92,17,17,0,0,0,7.19.3,54.49,54.49,0,0,0-6.72,9.18q-4.23,6.72-8.91,15.28a191.32,191.32,0,0,0-8.45,17.43,104,104,0,0,0-5.32,15.28c-.21,1.22-.46,3-.78,5.2a40.46,40.46,0,0,0-.47,4.89q0,8.56,5,8.56t10.79-5.81A91.74,91.74,0,0,0,1860.55,460q5.64-8.55,10.32-17.27t7.51-14.22q1.24-3,3.75-3.05c1,0,1.57.71,1.57,2.14a11.89,11.89,0,0,1-.94,3.36q-3.75,7.65-9.07,17.27a218.74,218.74,0,0,1-11.57,18.65,83.89,83.89,0,0,1-13,15Q1842.41,487.8,1835.53,488.41Z"/><path class="cls-1" d="M1093.85,704.34q.69,7.63,4.22,12a10.59,10.59,0,0,0,8.52,4.39q5.85,0,9.42-6t3.57-19.38v-82q0-7.44-2.94-9.68t-10.18-2.39v-3.66h42.21v3.66q-7.68.17-10.4,2.66t-2.72,9.41v64.14a55,55,0,0,1-5.69,24.43,65.24,65.24,0,0,1-14.6,19.8q-8.92,8.15-18.4,8.14a35.43,35.43,0,0,1-9-1.37V704.34Z"/><path class="cls-1" d="M1226.19,676.22q-19.25,21.4-37.55,21.4-12.87,0-22.7-9.9a32.18,32.18,0,0,1-9.84-23.49q0-15.66,11.69-28.23t27.58-12.57q12.78,0,20.29,8A29.26,29.26,0,0,1,1223.6,651h-55.68c-.11,2-.17,3.44-.17,4.36q0,13.51,8.11,22.57a25.84,25.84,0,0,0,20,9.06q14.85,0,30.3-15.82Zm-16.74-29q-1-9-6.48-14a18.44,18.44,0,0,0-12.86-5,20.47,20.47,0,0,0-13.9,5.38,22.49,22.49,0,0,0-7.51,13.56Z"/><path class="cls-1" d="M1229.56,625.42h27.53v3.67c-2.24,0-3.36.84-3.36,2.38a7.48,7.48,0,0,0,.6,2.61l18.52,47.52,9.84-20.89q6.22-13.29,6.22-22.38t-12.26-9.24v-3.67h28.06v3.67c-2.47,0-3.71.74-3.71,2.21a9.81,9.81,0,0,0,.86,3.21l18.41,47L1331,658.42q5.7-12.23,5.73-20.4a8,8,0,0,0-2.86-6.64q-2.86-2.29-9.77-2.29v-3.67h37v3.67a16.35,16.35,0,0,0-10.06,5.46q-4.3,4.69-9.88,16.54l-22.62,47.82h-5.18L1295,651.85q-4,6.72-6.3,10.85l-3,5.5a53,53,0,0,0-2.94,5.66l-11.6,25h-5.18L1246.05,648q-4.23-11.09-7.9-14.86a12.45,12.45,0,0,0-8.59-4Z"/><path class="cls-1" d="M1431.48,676.22q-19.26,21.4-37.56,21.4-12.86,0-22.7-9.9a32.18,32.18,0,0,1-9.84-23.49q0-15.66,11.7-28.23t27.58-12.57q12.77,0,20.29,8a29.3,29.3,0,0,1,7.94,19.56h-55.68c-.12,2-.18,3.44-.18,4.36q0,13.51,8.12,22.57a25.82,25.82,0,0,0,20,9.06q14.83,0,30.3-15.82Zm-16.75-29q-1-9-6.48-14a18.42,18.42,0,0,0-12.86-5,20.49,20.49,0,0,0-13.9,5.38,22.54,22.54,0,0,0-7.51,13.56Z"/><path class="cls-1" d="M1470.24,590.35a5.64,5.64,0,0,0-3.71,5.58v83.88q0,6.74,3.15,9.25t10,2.67v3.67H1440v-3.67q7.08-.15,10.19-2.75t3.11-9.17V607.16q0-7-6.56-7a23.77,23.77,0,0,0-6.74,1.22v-3.66l30.22-10.47Z"/><path class="cls-1" d="M1518.15,590.35a5.64,5.64,0,0,0-3.71,5.58v83.88q0,6.74,3.15,9.25t10.05,2.67v3.67h-39.71v-3.67q7.08-.15,10.19-2.75t3.11-9.17V607.16q0-7-6.56-7a23.83,23.83,0,0,0-6.74,1.22v-3.66l30.22-10.47Z"/><path class="cls-1" d="M1604.65,676.22q-19.26,21.4-37.55,21.4-12.87,0-22.71-9.9a32.18,32.18,0,0,1-9.84-23.49q0-15.66,11.7-28.23t27.58-12.57q12.78,0,20.29,8a29.3,29.3,0,0,1,7.94,19.56h-55.68c-.12,2-.18,3.44-.18,4.36q0,13.51,8.12,22.57a25.84,25.84,0,0,0,20,9.06q14.85,0,30.3-15.82Zm-16.75-29q-1-9-6.47-14a18.46,18.46,0,0,0-12.87-5,20.49,20.49,0,0,0-13.9,5.38,22.52,22.52,0,0,0-7.5,13.56Z"/><path class="cls-1" d="M1612.5,631.45l22.71-8.17h3.8v24.83q8.88-13.44,15.88-19.06t14.33-5.62a25,25,0,0,1,6.82,1.15v23.53h-6.13q-.09-13.83-9.06-13.83T1645,647.15a60.43,60.43,0,0,0-6.94,29.15q0,9.63,4,12.53t15.32,2.9v3.67H1612.5v-3.67q7.08-.15,10.19-2.71c2.07-1.71,3.11-4.77,3.11-9.21V640.16q0-6.72-5.61-6.72a29.82,29.82,0,0,0-7.69,1.68Z"/><path class="cls-1" d="M1693.22,671.87q.69,9.93,6.43,15.43a19.2,19.2,0,0,0,13.77,5.5,16.2,16.2,0,0,0,10.88-3.59,11.4,11.4,0,0,0,4.23-9.09,11.52,11.52,0,0,0-3.2-8.25q-3.28-3.29-12.86-8.63-6.83-3.82-12.43-7.15t-7.77-6.76a12.68,12.68,0,0,1-2.25-7q0-7.41,7.73-13.21t20.5-5.81a53.06,53.06,0,0,1,16.92,3.06v20H1729q-.09-8.48-5.35-13.6a16.88,16.88,0,0,0-12.09-5.12,10.21,10.21,0,0,0-7.55,2.72,8.69,8.69,0,0,0-2.72,6.38,9.5,9.5,0,0,0,3.1,7.1q3,3.06,12.18,8.1,15.71,8.79,19.68,12.38a12.56,12.56,0,0,1,4,9.7q0,9.54-9.54,16.58a36.09,36.09,0,0,1-22,7q-9.24,0-21.32-4.59V671.87Z"/><path class="cls-1" d="M552.62,91.68l-.17-.84v-.1l-.11-.41-.05-.15-.1-.31-.4-1.22a22.08,22.08,0,0,0-1.58-3.33,22.47,22.47,0,0,0-4.2-5.11,24,24,0,0,0-5.31-3.59l-.71-.35-.18-.09-.09-.05-.5-.21-.3-.1-1.23-.4c-.83-.26-1.58-.54-2.47-.79-1.12-.2-2.24-.38-3.35-.53l-1.68-.21-1.51,0-3,.12-2.9.53c-7.71,1.55-14.08,5.38-19.91,9.3l-4.24,2.9c-.95.67-1.9,1.42-2.84,2.18-.72-.68-1.43-1.35-2.13-2-2.39-2.38-4.47-4.93-6.72-7.39l-3.6-4.07,1.53-1.64a105.8,105.8,0,0,0,7.08-8.21c2.29-2.93,4.31-5.86,6.34-8.91A100,100,0,0,0,503.8,47a36,36,0,0,0,3.45-12.44c.07-1.16,0-2.35,0-3.52l-.21-1.78-.12-.9-.06-.44,0-.11c.14.53-.19-.86-.16-.74l-.05-.15-.7-2.47-.35-1.24a6.94,6.94,0,0,0-.52-1.43,31.82,31.82,0,0,0-7.64-11.43A38.58,38.58,0,0,0,474.64.08L473.9,0l-.75.08a38.47,38.47,0,0,0-22.84,10.24,32.63,32.63,0,0,0-7.44,10.9A59.44,59.44,0,0,0,441,27.48l0,.2-.1.64,0,.32-.08.64-.15,1.27c-.05,1.32-.09,2.75,0,4A35.55,35.55,0,0,0,444,46.91c.41.92.85,1.81,1.32,2.66l.35.64.47.85.67,1.1,2.67,4.38c1.95,2.94,4.2,6.21,6.42,9a100.8,100.8,0,0,0,7.1,8.26l1.53,1.65-3.61,4.09-3.42,3.83-1.72,1.91-.42.48-.11.12-.05.06h0l-.05.06-.89.87c-.71.7-1.42,1.38-2.14,2.06-.86-.69-1.74-1.39-2.67-2.06l-4.41-3-2.21-1.5c-.92-.61-1.52-.93-2.29-1.41-1.39-.89-3.09-1.76-4.75-2.62s-3.39-1.53-5.13-2.23A38.49,38.49,0,0,0,425,74.59a29.39,29.39,0,0,0-12-.06,38.57,38.57,0,0,0-5.9,2.12c-.41.22-.71.32-1.22.63l-1.48.93a28.21,28.21,0,0,0-2.59,2,20.77,20.77,0,0,0-6.63,11.51c-.08.46-.17.77-.23,1.35l-.17,1.73c-.11,1.21,0,2-.08,3.1a40,40,0,0,0,.59,6,20.42,20.42,0,0,0,2.37,6.61l.56.91.15.23.07.11c-.14-.16.27.34.24.3l.21.25.83,1,.41.5.62.62,1.29,1.24a23.42,23.42,0,0,0,12.16,5.69,31.37,31.37,0,0,0,12.59-1A56.22,56.22,0,0,0,437.53,116a104.64,104.64,0,0,0,18-12.4c.75-.62,1.43-1.29,2.16-1.92,4.8,3.84,9.21,8.8,13.6,13.32L460.4,129.34l-12.63,16.2,14.36-14.75,11.77-12.87,11.77,12.89L500,145.54l-12.66-16.22-10.81-14.27c4.46-4.58,8.5-9.18,13.57-13.29.72.62,1.44,1.26,2.18,1.88a106.23,106.23,0,0,0,17.95,12.41A55.32,55.32,0,0,0,521,120.39a31.63,31.63,0,0,0,12.61,1,23.55,23.55,0,0,0,12.13-5.68,26,26,0,0,0,2.28-2.3l1-1.21.25-.31c-.06.08.71-1,.4-.57l0-.07.08-.14.33-.55a19,19,0,0,0,1.52-3.36,30.34,30.34,0,0,0,.86-3.27A34.65,34.65,0,0,0,552.62,91.68ZM447,93.67a98.64,98.64,0,0,1-15.45,11.38c-5.3,3.08-11.06,5.22-15.81,4.75a11.83,11.83,0,0,1-6.3-2.61l-.59-.49a3.33,3.33,0,0,1-.32-.26l-.43-.47-.87-1-.07-.08h0l0-.05-.1-.18a10,10,0,0,1-1.15-3,29.23,29.23,0,0,1-.58-4.18c0-.66-.09-1.54,0-2v-.83c0-.28.11-.81.16-1.2a11,11,0,0,1,3.13-6.14,16.86,16.86,0,0,1,1.39-1.22l.65-.5c.19-.17.69-.41,1-.62a37,37,0,0,1,3.66-1.57,20.47,20.47,0,0,1,8.33-.4c5.84.74,11.78,3.74,17.44,7l4.28,2.45c.58.35,1.15.74,1.72,1.13Zm14.86-44.6-2.63-4.41-.66-1.1-.39-.77c-.36-.65-.67-1.3-.95-1.94a21.52,21.52,0,0,1-2.05-7.3,6,6,0,0,0-.06-1.15l.17-1.27.09-.63v-.06l0-.05c.43-1.16.64-2.41,1.12-3.53A17.48,17.48,0,0,1,460.61,21a23.56,23.56,0,0,1,13.29-5.88A23.61,23.61,0,0,1,487.19,21a13.91,13.91,0,0,1,2.36,2.73c.17.24.4.48.54.71l.3.65a11.2,11.2,0,0,0,.72,1.25,1.68,1.68,0,0,1,.21.34l.17.62.36,1.23.64,2.18v.1l.05.38.11.76v1.62a21.54,21.54,0,0,1-2,7.23,86.4,86.4,0,0,1-4.57,8.13c-1.74,2.66-3.6,5.39-5.49,7.86l-2.88,3.67c-.88,1.22-2.2,2.54-3.29,3.8l-.5.57-.53-.59c-2.19-2.32-4.13-4.9-6.14-7.41S463.65,51.83,461.82,49.07Zm12.07,62.53c-1.8-2.29-3.61-4.46-5.44-6.69a72.27,72.27,0,0,0-6.5-7c.49-.44,1-.86,1.49-1.31l1-.91.24-.22.43-.45.44-.46,1.76-1.87,3.52-3.74,3.09-3.32L477,89c2.44,2.52,4.78,5.21,7.3,7.59l1.47,1.35A142.58,142.58,0,0,0,473.89,111.6Zm68-9.88c-.18.54-.36,1.41-.5,1.67a3.54,3.54,0,0,1-.63,1.28l-.25.4-.08.08-.67.72a16.35,16.35,0,0,1-1.38,1.28,11.88,11.88,0,0,1-6.33,2.63c-4.74.46-10.49-1.67-15.79-4.76a96.79,96.79,0,0,1-15.45-11.36s0,0,0,0c.49-.33,1-.66,1.5-1l4.45-2.57c5.69-3.32,11.6-6.29,17.46-7a21.41,21.41,0,0,1,7.91.27c.75.26,1.58.62,2.36.92l1.17.46h0l.11.07.42.25a14.09,14.09,0,0,1,3,2.33,12,12,0,0,1,2.11,2.93,13.83,13.83,0,0,1,.57,1.32l.35,1.23.06.23v0l0,.43A24.4,24.4,0,0,1,541.92,101.72Z"/><path class="cls-1" d="M394.72,107.48a28.72,28.72,0,0,0-.55-3.34,34.33,34.33,0,0,0-4.88-11.21l-.49-.7-.06-.09-.27-.33-.1-.12-.22-.24-.86-1a21.1,21.1,0,0,0-8.72-5.36A24.55,24.55,0,0,0,372.26,84l-.79,0h-.29l-.55,0-.32,0-1.28.13c-.86.1-1.67.15-2.59.29-1.09.26-2.19.55-3.27.87l-1.61.49-1.37.66-2.72,1.34L355,89.46c-6.41,4.55-10.66,10.65-14.39,16.59l-2.7,4.37c-.59,1-1.15,2.08-1.71,3.16l-2.77-1c-3.15-1.21-6.1-2.69-9.15-4l-4.93-2.26.72-2.12a103.35,103.35,0,0,0,3.13-10.38c.89-3.61,1.55-7.11,2.17-10.72a99.32,99.32,0,0,0,1.11-11.14,35.58,35.58,0,0,0-1.91-12.77c-.4-1.08-.91-2.15-1.39-3.22l-.92-1.54-.47-.77-.23-.38-.06-.1c.34.44-.53-.7-.46-.61l-.11-.12-1.64-2-.82-1a6.47,6.47,0,0,0-1.06-1.1A31.78,31.78,0,0,0,305.82,41a38.67,38.67,0,0,0-25-.08l-.7.23-.66.38a38.52,38.52,0,0,0-16.69,18.65,32.43,32.43,0,0,0-2.37,13,59.06,59.06,0,0,0,.81,6.51l0,.2.17.62.1.31.18.61.38,1.23a37.93,37.93,0,0,0,1.61,3.65,36.08,36.08,0,0,0,8.16,9.91c.75.67,1.52,1.3,2.28,1.89l.58.45.29.22.49.37,1.06.72,4.23,2.92c3,1.89,6.35,4,9.53,5.64a99.61,99.61,0,0,0,9.85,4.66l2.07.89-1.63,5.2L299,124.08l-.79,2.44-.19.61-.05.16,0,.07s0,0,0,0v0l-.46,1.17c-.36.93-.78,1.82-1.16,2.74-1.06-.28-2.12-.56-3.23-.79l-5.26-.95-2.64-.47c-1.07-.18-1.75-.24-2.65-.36-1.64-.25-3.54-.35-5.41-.46s-3.72,0-5.6,0a38.88,38.88,0,0,0-5.69.84,29.48,29.48,0,0,0-11,4.84,39.38,39.38,0,0,0-4.53,4.34,12.92,12.92,0,0,0-.85,1.07l-1,1.45a27.14,27.14,0,0,0-1.55,2.89A20.73,20.73,0,0,0,245.49,157c.11.45.15.76.33,1.32l.56,1.64c.38,1.16.78,1.9,1.18,2.87a38.74,38.74,0,0,0,3,5.25,20.4,20.4,0,0,0,4.86,5.07l.88.6.22.15.12.07.35.18.28.14,1.16.56.58.28.81.32,1.69.61a23.49,23.49,0,0,0,13.42.26,31.37,31.37,0,0,0,11.1-6,54.3,54.3,0,0,0,8-8.33,104.06,104.06,0,0,0,11.36-18.63c.43-.87.83-1.75,1.24-2.62,5.92,1.56,12,4.29,17.8,6.63l-4.08,17.48-5,19.94,7.13-19.31,5.51-16.56,16,7,19.1,7.63L345,153.86l-15.69-8.65c2.21-6,4-11.85,7-17.69.92.28,1.82.6,2.76.87a105.88,105.88,0,0,0,21.44,4,54.61,54.61,0,0,0,11.58-.41A31.39,31.39,0,0,0,384,127.79a23.46,23.46,0,0,0,8.78-10.11,26.21,26.21,0,0,0,1.15-3l.44-1.52.11-.38a6.32,6.32,0,0,0,.13-.69V112l0-.16.07-.64A18.15,18.15,0,0,0,394.72,107.48ZM293.58,137.72a97.59,97.59,0,0,1-9.49,16.67c-3.59,5-8,9.27-12.5,10.78a12,12,0,0,1-6.82.19l-.75-.22c-.13,0-.23,0-.39-.11l-.59-.25-1.18-.51-.09-.05h0l0,0-.17-.12a10,10,0,0,1-2.26-2.26,28.93,28.93,0,0,1-2.24-3.58c-.27-.6-.7-1.37-.86-1.83l-.33-.77c-.12-.25-.23-.78-.35-1.15a11.07,11.07,0,0,1,.37-6.88,15.6,15.6,0,0,1,.77-1.69l.39-.71a8.91,8.91,0,0,1,.68-1,38.7,38.7,0,0,1,2.71-2.93,20.56,20.56,0,0,1,7.44-3.75c5.64-1.7,12.28-1.38,18.79-.67l4.92.5c.66.08,1.34.2,2,.32A.08.08,0,0,1,293.58,137.72Zm13.11-38-.23.73-.72-.33c-2.95-1.23-5.77-2.8-8.63-4.28s-5.31-3.08-8.09-4.86l-4.21-3-1-.74-.67-.54c-.6-.45-1.14-.92-1.66-1.39a21.47,21.47,0,0,1-4.84-5.84,7.44,7.44,0,0,0-.52-1l-.36-1.23-.18-.62,0,0v-.06c-.09-1.23-.4-2.46-.41-3.67a17.53,17.53,0,0,1,1.37-7A23.67,23.67,0,0,1,286.14,55,23.56,23.56,0,0,1,300.76,55,14.16,14.16,0,0,1,304,56.49c.26.14.56.27.78.42l.54.48a11.23,11.23,0,0,0,1.17.84c.1.09.19.1.32.24l.42.49.83,1,1.46,1.72.05.09.2.33.41.65.66,1.48a21.59,21.59,0,0,1,1.1,7.43,84,84,0,0,1-.87,9.28c-.51,3.14-1.09,6.38-1.82,9.42l-1.13,4.52C307.84,96.33,307.16,98.08,306.69,99.67Zm18.78,43.48c-2.58-1.36-5.11-2.61-7.69-3.9a74.23,74.23,0,0,0-8.76-3.76c.26-.61.54-1.22.79-1.83l.51-1.21.13-.31.21-.58.21-.61.85-2.42,1.7-4.84,1.47-4.29,4.23,1.8c3.26,1.32,6.49,2.82,9.76,4,.64.22,1.28.39,1.91.6A142.83,142.83,0,0,0,325.47,143.15Zm58.3-33.54-.07.47,0,.1-.32.93a17,17,0,0,1-.73,1.73,11.86,11.86,0,0,1-4.72,5c-4.14,2.35-10.26,2.75-16.36,2.08a97.33,97.33,0,0,1-18.74-4.09h0c.31-.5.62-1,1-1.5l3-4.16c3.85-5.36,8-10.47,13.09-13.54a21.33,21.33,0,0,1,7.34-3c.77-.07,1.68-.08,2.52-.13l1.25,0h.15l.49.06a14.42,14.42,0,0,1,3.73.89,12.17,12.17,0,0,1,3.12,1.82c.5.39.6.58,1.06,1l.82,1,.14.18,0,0,.21.37a25,25,0,0,1,2.9,7.67c.05.57.23,1.43.21,1.74A3.46,3.46,0,0,1,383.77,109.61Z"/><path class="cls-1" d="M59.73,371.66l.36-.06.6-.13,1.24-.29,5-1.19c3.4-.95,7.19-2.07,10.57-3.3a101.33,101.33,0,0,0,10.06-4.21l2-1,2.77,4.7L95,370.66l1.29,2.23.32.55.08.14,0,.06,0,.09.56,1.12c.44.89.87,1.79,1.29,2.68-.93.6-1.86,1.21-2.78,1.9l-4.23,3.26-2.11,1.65c-.85.67-1.35,1.15-2,1.73-1.28,1.05-2.63,2.4-4,3.71S81,392.53,79.75,394a37.9,37.9,0,0,0-3.18,4.79,29.42,29.42,0,0,0-3.79,11.44,39.88,39.88,0,0,0,.19,6.26c.08.46.09.77.23,1.35l.43,1.7a27.37,27.37,0,0,0,1.1,3.09,20.89,20.89,0,0,0,8.9,9.86c.41.21.68.4,1.21.63l1.59.69c1.12.49,1.94.69,2.93,1a38.76,38.76,0,0,0,5.89,1.3,20.42,20.42,0,0,0,7-.21l1-.26.26-.07.13,0,.36-.14.3-.12,1.19-.48.59-.24.79-.4,1.58-.84a23.5,23.5,0,0,0,9.17-9.8,31.44,31.44,0,0,0,2.95-12.28,55.33,55.33,0,0,0-.8-11.55,105.13,105.13,0,0,0-6.25-20.91c-.36-.9-.75-1.78-1.12-2.67,5.12-3.36,11.2-6,16.83-8.8l10.26,14.73,11.51,17-9.58-18.22-8.62-15.18,15.9-7.21,18.44-9.09-19.33,7L131,362.28c-3-5.65-6.1-10.91-8.45-17,.83-.5,1.65-1,2.47-1.5a106,106,0,0,0,17.35-13.24,55.46,55.46,0,0,0,7.44-8.88A31.61,31.61,0,0,0,154.6,310,23.56,23.56,0,0,0,153,296.69a24.42,24.42,0,0,0-1.49-2.88l-.83-1.35-.21-.34-.42-.56-.05-.06-.11-.12-.43-.48a19.51,19.51,0,0,0-2.72-2.49,29.25,29.25,0,0,0-2.85-1.82,34.52,34.52,0,0,0-11.61-3.88l-.85-.1-.1,0-.42,0h-1.77a23.22,23.22,0,0,0-3.65.48,22.35,22.35,0,0,0-6.17,2.42,23.74,23.74,0,0,0-5,3.94l-.56.56-.14.15-.07.07-.35.41-.2.26-.75,1c-.51.7-1,1.34-1.52,2.11-.54,1-1,2-1.54,3l-.72,1.52L108,300l-.81,2.92-.41,2.92c-.9,7.81.78,15,2.7,21.8l1.44,4.93c.35,1.11.78,2.25,1.21,3.38-.87.47-1.73.94-2.6,1.39-3,1.54-6.08,2.74-9.11,4.12l-5,2.16-1.09-2a102.85,102.85,0,0,0-5.62-9.26c-2.08-3.08-4.24-5.91-6.52-8.78a95.43,95.43,0,0,0-7.53-8.3,35.71,35.71,0,0,0-10.76-7.12c-1.07-.42-2.22-.77-3.33-1.12l-1.76-.35-.89-.17-.43-.08-.12,0-.76-.06h-.15l-2.57-.09-1.28-.05a7.39,7.39,0,0,0-1.52,0A31.91,31.91,0,0,0,37.82,310,38.66,38.66,0,0,0,21,328.57l-.29.68-.16.73a38.53,38.53,0,0,0,2.69,24.89,32.38,32.38,0,0,0,8.06,10.44,56.72,56.72,0,0,0,5.37,3.75l.17.11.58.3.29.13.58.27,1.16.54a39,39,0,0,0,3.79,1.25,35.84,35.84,0,0,0,12.83.57c1-.11,2-.26,2.93-.44ZM115.26,307l.41-2.15.71-2,.33-1,.46-.76c.28-.51.55-1,.79-1.56.46-.62,1.07-1.3,1.59-2l.79-1,0,0,.1-.08.37-.33a15,15,0,0,1,3.15-2.17,12.52,12.52,0,0,1,3.44-1.1c.63-.12.83-.06,1.43-.14l1.29.06h.28l.41.08a24.6,24.6,0,0,1,7.64,3c.45.33,1.22.78,1.43,1s.37.08,1,1l.28.36.07.11.47.86a13,13,0,0,1,.79,1.71,11.87,11.87,0,0,1,.55,6.83c-1,4.64-4.83,9.46-9.41,13.55a96.54,96.54,0,0,1-15.58,11.18v0c-.17-.58-.33-1.14-.47-1.73l-1.07-5C115.16,319.38,114.16,312.85,115.26,307Zm-9,46.74c3.15-1.54,6.43-2.94,9.47-4.6.59-.32,1.16-.66,1.75-1a140.22,140.22,0,0,0,9.34,15.56c-2.74,1-5.36,2.05-8,3.1a71.39,71.39,0,0,0-8.66,4c-.28-.61-.54-1.22-.82-1.82l-.57-1.19-.14-.3-.28-.54-.31-.57-1.24-2.25-2.46-4.5-2.21-4Zm-4.84,30,0,.05a98.15,98.15,0,0,1,6,18.21c1.3,6,1.55,12.14-.36,16.5a11.87,11.87,0,0,1-4.43,5.19l-.65.41c-.12.07-.2.14-.35.22l-.58.27-1.17.53-.1,0h-.06l-.21.05a10.3,10.3,0,0,1-3.18.17,28.19,28.19,0,0,1-4.16-.74c-.63-.2-1.49-.39-1.94-.58l-.79-.27c-.26-.08-.74-.35-1.09-.51a11.09,11.09,0,0,1-4.87-4.88,17.21,17.21,0,0,1-.74-1.7l-.27-.77a11.58,11.58,0,0,1-.27-1.17,35.7,35.7,0,0,1-.37-4,20.53,20.53,0,0,1,2.2-8.05c2.51-5.33,7.19-10,12.07-14.41l3.66-3.31C100.37,384.61,100.92,384.19,101.46,383.76ZM57.4,357.33l-.85.13c-.73.14-1.45.23-2.15.31a21.66,21.66,0,0,1-7.57-.32,7.71,7.71,0,0,0-1.11-.3l-1.16-.55-.57-.28-.05,0,0,0c-1-.77-2.11-1.36-3-2.16a17.56,17.56,0,0,1-4.31-5.73,23.64,23.64,0,0,1-1.48-14.55,23.53,23.53,0,0,1,9.69-10.74,14,14,0,0,1,3.32-1.4,8.27,8.27,0,0,1,.83-.29l.72-.09a12.25,12.25,0,0,0,1.41-.3,1.66,1.66,0,0,1,.39-.08l.64,0,1.29,0,2.25.07.11,0,.38.08.76.12,1.53.51a21.47,21.47,0,0,1,6.26,4.15A81.33,81.33,0,0,1,71,332.79c2,2.47,4,5.08,5.79,7.65l2.6,3.87c.89,1.21,1.72,2.88,2.59,4.3l.39.66-.72.32c-2.89,1.36-5.94,2.41-9,3.54s-5.84,1.89-9,2.76l-5,1.15Z"/><path class="cls-1" d="M180,661.77l20.36,2.84-20-5.07-17-3.75,5.29-16.65,5.58-19.79-7.72,19.07-7,16.51c-6.19-1.57-12.2-2.78-18.3-5.1.18-1,.38-1.89.54-2.84a105.85,105.85,0,0,0,1.78-21.75,55.12,55.12,0,0,0-1.62-11.47,31.47,31.47,0,0,0-5.44-11.41,23.51,23.51,0,0,0-11-7.67,26,26,0,0,0-3.14-.83l-1.56-.28-.39-.07-.7-.06h-.88a18.11,18.11,0,0,0-3.68.35,31,31,0,0,0-3.26.9,34.68,34.68,0,0,0-10.64,6l-.64.56-.09.07-.3.3-.11.12-.21.24-.86,1a21.33,21.33,0,0,0-4.42,9.23,24.65,24.65,0,0,0-.45,6.39l0,.79v.3l.07.54.07.31.26,1.26c.19.85.32,1.65.55,2.54.38,1.07.78,2.13,1.21,3.17l.66,1.56.79,1.29,1.62,2.56,1.9,2.25c5.21,5.9,11.72,9.5,18,12.59L124,650c1.06.49,2.19.93,3.32,1.37-.23,1-.46,1.92-.71,2.86-.87,3.27-2,6.35-3,9.53l-1.73,5.14-2.18-.5a105.17,105.17,0,0,0-10.65-2c-3.68-.51-7.23-.79-10.88-1a97.74,97.74,0,0,0-11.21.05,36,36,0,0,0-12.5,3.23c-1,.52-2,1.14-3,1.73L70,671.39l-.71.55-.35.27-.09.07c-.24.23.41-.4-.56.52l-.11.12-1.79,1.84-.89.92a6.82,6.82,0,0,0-1,1.16,31.94,31.94,0,0,0-6.09,12.33,38.63,38.63,0,0,0,2.54,24.9l.3.68.44.6A38.49,38.49,0,0,0,82,730a32.46,32.46,0,0,0,13.16,1,60.8,60.8,0,0,0,6.38-1.48l.19-.06.61-.23.3-.12.58-.25,1.19-.51c1.16-.61,2.42-1.29,3.46-2a35.91,35.91,0,0,0,9-9.15c.59-.83,1.14-1.65,1.64-2.48l.39-.62.19-.31.31-.52.61-1.13,2.46-4.51c1.57-3.16,3.27-6.73,4.62-10.07a104.22,104.22,0,0,0,3.61-10.28l.66-2.16,5.34,1.08,5,1.06,2.51.53.63.13.15,0h.07l.11,0,1.2.33c1,.26,1.91.55,2.86.83-.17,1.09-.34,2.19-.45,3.34l-.4,5.32-.2,2.67c-.06,1.09,0,1.78-.07,2.69-.08,1.64,0,3.55.1,5.42s.37,3.7.63,5.56a39.08,39.08,0,0,0,1.43,5.58,29.41,29.41,0,0,0,6,10.46,39,39,0,0,0,4.79,4c.39.24.62.45,1.15.73l1.55.83a28.57,28.57,0,0,0,3,1.24,20.77,20.77,0,0,0,13.29,0c.42-.16.74-.23,1.27-.47l1.58-.72c1.11-.51,1.81-1,2.73-1.48a38.65,38.65,0,0,0,4.9-3.51,20.27,20.27,0,0,0,4.55-5.36l.5-.94.12-.24.06-.12c-.06.2.17-.4.15-.37l.1-.3.44-1.2.23-.61.22-.84.44-1.75a23.44,23.44,0,0,0-1.15-13.37A31.37,31.37,0,0,0,189,695.36a54.65,54.65,0,0,0-9.12-7.13,104.65,104.65,0,0,0-19.71-9.34c-.91-.34-1.83-.65-2.74-1,.93-6.06,3-12.35,4.72-18.39Zm-62.87,21.31c-.92,3.06-2.18,6-3.36,9s-2.5,5.6-4,8.56l-2.5,4.48-.62,1.12-.47.73c-.39.64-.8,1.23-1.21,1.8a21.58,21.58,0,0,1-5.3,5.42,7.23,7.23,0,0,0-1,.62l-1.19.49-.59.24,0,0h-.05c-1.22.21-2.41.66-3.62.8a17.59,17.59,0,0,1-7.14-.64,23.61,23.61,0,0,1-11.77-8.55,23.66,23.66,0,0,1-1.53-14.47,13.91,13.91,0,0,1,1.18-3.41c.12-.26.21-.58.34-.81l.42-.59a12.71,12.71,0,0,0,.72-1.25,2.35,2.35,0,0,1,.64-.81l.89-.93,1.56-1.63.09-.06.3-.24.61-.48,1.4-.8a21.59,21.59,0,0,1,7.28-1.87,81.79,81.79,0,0,1,9.31-.11c3.17.18,6.47.42,9.55.83l4.62.65c1.5.15,3.31.65,4.94.95l.75.15Zm11.76-38.49v0c-.52-.26-1.06-.52-1.59-.81l-4.45-2.57c-5.73-3.27-11.25-6.9-14.84-11.6l-1.31-1.74-1-1.86-.52-.91-.26-.85c-.18-.55-.39-1.09-.62-1.63-.16-.76-.26-1.67-.39-2.5l-.18-1.23v-.65a14.88,14.88,0,0,1,.5-3.8,12.47,12.47,0,0,1,1.48-3.29c.34-.54.51-.66.86-1.16l.9-.92.16-.16,0,0,.35-.26a25,25,0,0,1,7.33-3.68c.56-.11,1.4-.38,1.7-.39a3.47,3.47,0,0,1,1.43-.1l.46,0,.12,0,1,.22a14,14,0,0,1,1.8.55,11.91,11.91,0,0,1,5.44,4.17c2.77,3.87,3.8,9.92,3.78,16.06A96.92,96.92,0,0,1,128.87,644.59Zm44.52,54.34c5.34,3.05,10.06,7,12,11.32a11.93,11.93,0,0,1,.89,6.76l-.13.76c0,.13,0,.24-.07.4l-.19.62-.38,1.22,0,.1h0l0,0a1.14,1.14,0,0,0-.1.19,10.09,10.09,0,0,1-2,2.47,27.16,27.16,0,0,1-3.33,2.6c-.57.34-1.29.85-1.73,1.05l-.73.41c-.23.14-.75.31-1.11.47a11.17,11.17,0,0,1-6.88.36c-.58-.18-1.26-.38-1.75-.59l-.76-.31c-.24-.09-.7-.4-1.05-.59a36.65,36.65,0,0,1-3.19-2.38,20.4,20.4,0,0,1-4.51-7c-2.28-5.44-2.65-12.06-2.63-18.63l0-4.93c0-.67.06-1.36.11-2l0,0A98.39,98.39,0,0,1,173.39,698.93ZM154.81,667a72.11,72.11,0,0,0-2.82,9.11l-1.9-.6-1.27-.38-.31-.1-.6-.15-.62-.14-2.5-.59-5-1.18-4.43-1,1.35-4.4c1-3.37,2.12-6.75,2.92-10.11.16-.66.29-1.31.44-2a144.33,144.33,0,0,0,17.8,3.47C156.8,661.66,155.83,664.31,154.81,667Z"/><path class="cls-1" d="M472,849.32l-.1-.25,0-.12c.1.18-.2-.39-.18-.35l-.15-.28-.61-1.14-.3-.56-.47-.74-1-1.49a23.42,23.42,0,0,0-10.7-8.09,31.37,31.37,0,0,0-12.53-1.65,55,55,0,0,0-11.4,2,104.73,104.73,0,0,0-20.13,8.41c-.86.45-1.68,1-2.52,1.42-3.89-4.75-7.18-10.52-10.53-15.85l13.57-11.74,15.73-13.23L413.52,817.1l-14.19,10.15-8.83-15.06-11-17.39,9,18.49,7.61,16.21c-5.31,3.56-10.22,7.21-16,10.18-.58-.76-1.15-1.53-1.75-2.29a105.44,105.44,0,0,0-15-15.87,54.88,54.88,0,0,0-9.6-6.48,31.63,31.63,0,0,0-12.12-3.59,23.57,23.57,0,0,0-13.05,3,29,29,0,0,0-2.72,1.78l-1.25,1-.31.24c.07-.07-.9.83-.51.48l-.06.06-.11.12-.43.47a19.3,19.3,0,0,0-2.19,3,30.52,30.52,0,0,0-1.52,3,34.75,34.75,0,0,0-2.64,12v1l0,.41,0,.16,0,.32.14,1.28a21.06,21.06,0,0,0,3.9,9.46,24,24,0,0,0,4.45,4.61l.63.5.15.12.08.06.44.31.28.16,1.11.64c.76.44,1.44.87,2.26,1.3,1,.42,2.1.83,3.16,1.22l1.6.55,1.49.28,3,.5,2.94.1c7.87.08,14.9-2.35,21.41-5l4.75-2c1.07-.46,2.16-1,3.24-1.54.55.81,1.11,1.62,1.65,2.43,1.84,2.83,3.35,5.76,5,8.63l2.66,4.73-1.83,1.29a102,102,0,0,0-8.63,6.55c-2.85,2.4-5.44,4.84-8.06,7.4a98.84,98.84,0,0,0-7.45,8.36,35.76,35.76,0,0,0-6,11.45c-.31,1.12-.53,2.28-.76,3.43l-.17,1.79-.07.89,0,.45v.12c0-.56,0,.87,0,.75v.16l.17,2.56.09,1.29a6.57,6.57,0,0,0,.2,1.5,31.82,31.82,0,0,0,5.1,12.77,38.6,38.6,0,0,0,20.2,14.78l.7.23.75.08A38.5,38.5,0,0,0,400,937.39a32.35,32.35,0,0,0,9.54-9.11,59.15,59.15,0,0,0,3.17-5.73l.09-.18.23-.61.1-.3.21-.61.42-1.21c.32-1.27.66-2.67.84-3.9a35.92,35.92,0,0,0-.77-12.81c-.22-1-.46-1.95-.74-2.87l-.21-.71-.1-.35-.18-.58-.43-1.21-1.71-4.84c-1.29-3.28-2.81-6.94-4.39-10.18a100.89,100.89,0,0,0-5.23-9.56l-1.15-1.93,4.37-3.24,4.15-3,2.07-1.52.52-.38.13-.09,0,0,.1-.06,1.05-.68c.83-.53,1.68-1,2.52-1.57.7.87,1.41,1.73,2.18,2.57l3.69,3.86,1.86,1.93c.76.78,1.29,1.23,1.94,1.86,1.17,1.16,2.66,2.36,4.1,3.55s3,2.2,4.56,3.25a38.45,38.45,0,0,0,5.1,2.67,29.47,29.47,0,0,0,11.77,2.57,39.09,39.09,0,0,0,6.21-.85c.44-.13.75-.17,1.32-.37l1.64-.6a28.8,28.8,0,0,0,2.95-1.42,20.78,20.78,0,0,0,8.88-9.89c.17-.43.33-.71.5-1.26l.52-1.66c.37-1.16.49-2,.73-3a39.07,39.07,0,0,0,.68-6,20.54,20.54,0,0,0-.95-7ZM331.72,846.7l0,0Zm34.56-.66-4.88,1.59c-6.27,2.07-12.66,3.74-18.55,3.25l-2.18-.18-2.05-.5-1-.23-.8-.37c-.54-.23-1.08-.44-1.63-.63-.67-.4-1.41-.93-2.12-1.38l-1-.7,0,0-.09-.08-.36-.33a14.51,14.51,0,0,1-2.49-2.91,12,12,0,0,1-1.45-3.3c-.18-.61-.15-.82-.3-1.42l-.07-1.28v-.28l0-.43a24.81,24.81,0,0,1,2.17-7.9c.29-.48.65-1.29.84-1.53s.06-.37.88-1.12l.33-.33.1-.07.8-.56a16.12,16.12,0,0,1,1.62-1,12,12,0,0,1,6.74-1.25c4.72.53,9.91,3.82,14.45,7.94a96.83,96.83,0,0,1,12.75,14.32l0,0C367.41,845.62,366.86,845.84,366.28,846Zm33.86,67.63a8.88,8.88,0,0,0-.19,1.13l-.42,1.21-.22.61,0,0,0,.05c-.65,1-1.12,2.22-1.82,3.21a17.63,17.63,0,0,1-5.25,4.89,23.64,23.64,0,0,1-14.23,3,23.59,23.59,0,0,1-11.77-8.51,14,14,0,0,1-1.75-3.17c-.11-.26-.29-.54-.38-.79l-.16-.71a12.09,12.09,0,0,0-.44-1.37,1.28,1.28,0,0,1-.13-.38l-.05-.64-.09-1.28-.17-2.25v-.11l0-.38,0-.77.34-1.58a21.37,21.37,0,0,1,3.48-6.66,85.62,85.62,0,0,1,6.15-7c2.26-2.23,4.64-4.52,7-6.54l3.57-3c1.12-1,2.69-2,4-3l.61-.45.39.69c1.66,2.72,3,5.65,4.46,8.53s2.49,5.61,3.69,8.69L398.5,902l.41,1.21.22.83c.22.72.39,1.42.53,2.11A21.52,21.52,0,0,1,400.14,913.67Zm5-63.36L404,851l-.28.17-.51.35-.53.36-2.11,1.46-4.22,2.92-3.72,2.61-2.36-4c-1.86-3-3.6-6.09-5.56-8.94l-1.17-1.63A143,143,0,0,0,398,833.43c1.29,2.62,2.61,5.12,3.94,7.67a71.11,71.11,0,0,0,4.89,8.22C406.29,849.66,405.69,850,405.12,850.31Zm57.12,11.14c-.13.65-.23,1.52-.38,2l-.18.81c-.06.27-.27.77-.39,1.14a11.11,11.11,0,0,1-4.35,5.36c-.51.31-1.12.68-1.61.91l-.74.35a9.67,9.67,0,0,1-1.13.39,38.63,38.63,0,0,1-3.91.78,20.6,20.6,0,0,1-8.22-1.34c-5.57-2-10.75-6.1-15.6-10.51L422,858.05c-.49-.46-1-1-1.45-1.46l.06,0a98.4,98.4,0,0,1,17.47-7.91c5.83-1.92,11.91-2.81,16.45-1.37a12,12,0,0,1,5.63,3.87l.47.6c.08.11.16.19.26.32l.32.55.65,1.11.06.1h0v.06l.06.2a9.41,9.41,0,0,1,.5,3.14A27.73,27.73,0,0,1,462.24,861.45Z"/><path class="cls-1" d="M764.47,820.41l-.08-.19-.3-.58-.15-.28-.31-.56-.63-1.13c-.72-1.08-1.54-2.27-2.33-3.23a36,36,0,0,0-10-8c-.88-.5-1.76-1-2.63-1.37l-.67-.32-.32-.16-.55-.25-1.19-.5-4.74-2c-3.31-1.23-7-2.56-10.5-3.54a99.63,99.63,0,0,0-10.6-2.52l-2.21-.43.51-5.43.52-5.11.27-2.55.06-.64,0-.16v-.18l.2-1.23c.16-1,.35-2,.53-2.92,1.1.05,2.22.11,3.36.1l5.34-.16,2.68-.09c1.08,0,1.77-.14,2.67-.2,1.65-.1,3.54-.4,5.39-.67s3.64-.75,5.46-1.21a38.72,38.72,0,0,0,5.4-2,29.47,29.47,0,0,0,9.78-7,40,40,0,0,0,3.53-5.18c.2-.42.38-.67.6-1.23l.66-1.62a26.5,26.5,0,0,0,.92-3.15,20.72,20.72,0,0,0-1.41-13.21c-.2-.41-.31-.72-.6-1.22l-.88-1.5c-.62-1-1.16-1.69-1.76-2.56a39.15,39.15,0,0,0-4-4.51,20.47,20.47,0,0,0-5.81-4l-1-.4-.25-.09-.12,0c.2,0-.42-.12-.38-.11l-.31-.07-1.24-.31-.63-.16-.86-.14-1.78-.25a23.49,23.49,0,0,0-13.18,2.54,31.57,31.57,0,0,0-9.61,8.2,55.72,55.72,0,0,0-6.13,9.82A104.7,104.7,0,0,0,708,767.33c-.24.95-.46,1.89-.67,2.83-6.12-.3-12.6-1.71-18.79-2.78l.36-18,.7-20.53-3,20.37-2,17.34-17.1-3.51-20.26-3.49,19.76,5.68,17.15,5.2c-.92,6.31-1.49,12.41-3.17,18.72-.95-.08-1.91-.18-2.87-.24a106.67,106.67,0,0,0-21.82.51,55.67,55.67,0,0,0-11.24,2.8,31.42,31.42,0,0,0-10.77,6.61,23.45,23.45,0,0,0-6.49,11.72,26,26,0,0,0-.49,3.21l-.12,1.58,0,.4c0-.1,0,1.21,0,.69v.24l.06.64a19,19,0,0,0,.74,3.62,30.63,30.63,0,0,0,1.23,3.15,34.59,34.59,0,0,0,7.12,10l.62.58.08.08.33.26.13.1.26.18,1,.76a22,22,0,0,0,3.23,1.76,22.56,22.56,0,0,0,6.41,1.67,24.41,24.41,0,0,0,6.4-.22l.79-.13.19,0h.1l.52-.13.31-.1,1.22-.39c.83-.28,1.61-.5,2.47-.82,1-.48,2-1,3-1.53l1.48-.81,1.2-.93,2.37-1.88,2-2.13c5.33-5.79,8.23-12.64,10.64-19.22l1.73-4.84c.37-1.1.69-2.27,1-3.44l2.91.4c3.34.53,6.52,1.36,9.8,2l5.28,1.18-.26,2.22a103.26,103.26,0,0,0-.91,10.8c-.12,3.72,0,7.28.12,10.94a96.57,96.57,0,0,0,1.22,11.12,35.74,35.74,0,0,0,4.52,12.1c.62,1,1.34,1.92,2,2.86l1.21,1.32.62.66.31.32.08.08c-.43-.36.66.58.57.5l.13.1,2,1.58,1,.8a7.45,7.45,0,0,0,1.26.85,31.82,31.82,0,0,0,12.9,4.76,38.55,38.55,0,0,0,24.49-5.12L754,862l.55-.5A38.48,38.48,0,0,0,767,839.79a32.41,32.41,0,0,0-.38-13.19A58.7,58.7,0,0,0,764.47,820.41Zm-43.77-50a99.53,99.53,0,0,1,5.81-18.28c2.49-5.62,5.89-10.73,10-13.14a12,12,0,0,1,6.63-1.59l.78.06a3.1,3.1,0,0,1,.41,0l.62.12,1.26.26.11,0h0l0,0a.72.72,0,0,0,.2.09,9.84,9.84,0,0,1,2.67,1.73,29.22,29.22,0,0,1,2.93,3c.39.54,1,1.2,1.22,1.62l.48.68a11.64,11.64,0,0,1,.59,1.05,11.14,11.14,0,0,1,1.07,6.82c-.12.59-.24,1.29-.4,1.8l-.23.78a10,10,0,0,1-.47,1.1,35.83,35.83,0,0,1-2,3.43,20.47,20.47,0,0,1-6.51,5.22c-5.17,2.83-11.72,3.89-18.25,4.56l-4.9.53c-.67.06-1.36.09-2,.11C720.69,770.42,720.7,770.4,720.7,770.38Zm-76.89,56.5-.08-.07a1,1,0,0,0,.11.1Zm32.7-23.14-2.09,4.69c-2.66,6-5.68,11.91-10,16l-1.59,1.49-1.74,1.19-.86.61-.81.35c-.53.24-1,.5-1.55.78-.75.23-1.64.43-2.45.65l-1.21.31h-.16l-.49.05a14.39,14.39,0,0,1-3.83-.1,11.86,11.86,0,0,1-3.42-1.13c-.58-.27-.71-.43-1.25-.73l-1-.8-.19-.15,0,0,0,0-.29-.32a24.78,24.78,0,0,1-4.43-6.9c-.16-.54-.52-1.35-.56-1.65a3.33,3.33,0,0,1-.25-1.4l0-.48,0-.11.12-1a13.46,13.46,0,0,1,.36-1.85,11.93,11.93,0,0,1,3.58-5.85c3.56-3.15,9.46-4.81,15.57-5.43a97.7,97.7,0,0,1,19.18.11h0C677,802.62,676.75,803.17,676.51,803.74Zm29.16-26-.25,1.29,0,.33-.09.61-.08.63-.33,2.55-.65,5.09-.55,4.51-4.52-.89c-3.45-.61-6.93-1.4-10.37-1.85l-2-.22a141.74,141.74,0,0,0,1.59-18.07c2.81.8,5.54,1.48,8.34,2.21a73,73,0,0,0,9.35,1.86C705.94,776.43,705.79,777.08,705.67,777.73Zm46.72,59.47a17.91,17.91,0,0,1-21.51,15.63,13.81,13.81,0,0,1-3.51-.82,8.59,8.59,0,0,1-.85-.25l-.63-.35a14.11,14.11,0,0,0-1.31-.59,2.67,2.67,0,0,1-.88-.55l-1-.79-1.78-1.37-.08-.09-.25-.28-.55-.55-.95-1.31a21.45,21.45,0,0,1-2.61-7,83.72,83.72,0,0,1-1.08-9.26c-.15-3.17-.27-6.47-.18-9.59l.17-4.66c0-1.5.29-3.35.42-5l.08-.76.77.17c3.13.59,6.22,1.54,9.32,2.39s5.84,1.91,8.94,3.08l4.72,2,1.18.51.77.39a27.58,27.58,0,0,1,7.86,5.71,6.3,6.3,0,0,0,.72.9l.61,1.13.3.56,0,0,0,.07c.33,1.19.9,2.33,1.16,3.51A17.85,17.85,0,0,1,752.39,837.2Z"/><path class="cls-1" d="M940,501.78a32.24,32.24,0,0,0-10.06-8.54,57.92,57.92,0,0,0-6-2.55l-.19-.07-.63-.17-.31-.07-.62-.15-1.25-.29c-1.3-.18-2.72-.37-4-.42a35.68,35.68,0,0,0-12.67,2.11c-1,.31-1.89.66-2.78,1l-.68.28-.34.14-.55.24-1.16.55-4.64,2.2c-3.13,1.63-6.61,3.52-9.66,5.43a101.32,101.32,0,0,0-9,6.2l-1.8,1.35L870,505l-3.44-3.81-1.73-1.9-.43-.48-.11-.11,0-.06-.06-.08-.79-1-1.82-2.35c.79-.78,1.57-1.58,2.33-2.43l3.45-4.08,1.73-2c.69-.85,1.08-1.42,1.64-2.13,1-1.29,2.07-2.89,3.1-4.45s1.88-3.21,2.76-4.87a37.94,37.94,0,0,0,2.12-5.35A29.24,29.24,0,0,0,880,458a40,40,0,0,0-1.49-6.09c-.17-.44-.25-.73-.51-1.28l-.77-1.57a25.68,25.68,0,0,0-1.72-2.79,20.83,20.83,0,0,0-10.75-7.79c-.45-.12-.75-.25-1.31-.37l-1.71-.35c-1.19-.24-2-.26-3.08-.41a39.09,39.09,0,0,0-6,0,20.29,20.29,0,0,0-6.83,1.67l-1,.46-.24.13-.11.06c.17-.12-.37.23-.34.21l-.26.18-1.07.72-.52.36-.69.54-1.37,1.16a23.47,23.47,0,0,0-6.94,11.49,31.25,31.25,0,0,0-.32,12.63A55.53,55.53,0,0,0,836.19,478a104.65,104.65,0,0,0,10.46,19.15c.54.8,1.13,1.56,1.68,2.35-4.32,4.37-9.71,8.24-14.66,12.13l-13.11-12.27-14.79-14.26,13.17,15.83L830.52,514l-14,10.36-16.15,12.73,17.45-10.89,15.32-9.27c4.09,4.91,8.24,9.4,11.8,14.88-.7.66-1.41,1.3-2.1,2a104.76,104.76,0,0,0-14.22,16.56,55.19,55.19,0,0,0-5.44,10.22,31.6,31.6,0,0,0-2.3,12.43,23.55,23.55,0,0,0,4.38,12.67,28.15,28.15,0,0,0,2,2.5l1.1,1.15.28.29.52.45.06.05.13.09.52.38a18.67,18.67,0,0,0,3.19,1.88,32.49,32.49,0,0,0,3.16,1.19A34.62,34.62,0,0,0,848.38,595l.85-.08h.11l.42-.07.16,0,.31-.07,1.25-.27a21.75,21.75,0,0,0,3.48-1.23,22.3,22.3,0,0,0,5.52-3.64,24.2,24.2,0,0,0,4.12-4.9l.43-.68.1-.16.06-.08.26-.48.13-.3.52-1.17c.36-.8.71-1.52,1-2.38.32-1.08.62-2.18.89-3.28l.38-1.64.11-1.51.2-3-.22-2.94c-.74-7.83-3.89-14.57-7.17-20.77l-2.44-4.52c-.57-1-1.22-2-1.88-3.06l2.25-1.89c2.63-2.14,5.38-3.94,8.06-5.93l4.42-3.14,1.47,1.68a102.65,102.65,0,0,0,7.43,7.9c2.67,2.58,5.38,4.9,8.2,7.24a98.66,98.66,0,0,0,9.08,6.53,35.62,35.62,0,0,0,12,4.74c1.13.19,2.32.29,3.49.4l1.79,0,.9,0h.56c-.55.08.88-.1.76-.09l.16,0,2.53-.44,1.26-.22a6.57,6.57,0,0,0,1.48-.36,31.78,31.78,0,0,0,12.16-6.4A38.57,38.57,0,0,0,947.63,527l.15-.71v-.75A38.51,38.51,0,0,0,940,501.78Zm-92.24-28.6c-2.51-5.6-4-11.55-3.07-16.22a11.86,11.86,0,0,1,3.25-6l.56-.53a2,2,0,0,1,.29-.29l.51-.38,1-.77.09-.06h0l.05,0,.19-.09a10.27,10.27,0,0,1,3.08-.82,28,28,0,0,1,4.22-.15c.66.07,1.54.08,2,.17l.82.1c.28,0,.79.19,1.18.27a11.16,11.16,0,0,1,5.79,3.76c.36.48.79,1,1.07,1.51l.42.7a9.32,9.32,0,0,1,.51,1.08,35.88,35.88,0,0,1,1.19,3.8,20.79,20.79,0,0,1-.48,8.33c-1.35,5.73-5,11.32-8.82,16.61l-2.88,4c-.41.54-.85,1.07-1.3,1.6l0,0A98.72,98.72,0,0,1,847.74,473.18Zm12.19,94.51,0,2.18-.28,2.09-.12,1-.29.83q-.25.84-.45,1.68c-.33.71-.78,1.51-1.16,2.26l-.58,1.11v0l-.07.1-.3.39a14.26,14.26,0,0,1-2.64,2.78,12.49,12.49,0,0,1-3.13,1.8c-.59.24-.8.23-1.38.43l-1.26.22-.23,0h-.47a24.75,24.75,0,0,1-8.09-1.34c-.51-.23-1.35-.51-1.61-.68a3.33,3.33,0,0,1-1.2-.75l-.36-.29-.09-.1-.64-.74a15.49,15.49,0,0,1-1.13-1.5,11.87,11.87,0,0,1-2-6.57c0-4.76,2.75-10.26,6.38-15.21a96.71,96.71,0,0,1,12.91-14.18l0,0c.28.53.56,1.05.82,1.6l2.09,4.7C857.46,555.6,859.79,561.78,859.93,567.69Zm-1-47.58c-2.76,2.17-5.68,4.22-8.31,6.47l-1.49,1.33a140.31,140.31,0,0,0-12.38-13.27c2.48-1.56,4.82-3.13,7.23-4.72a71.2,71.2,0,0,0,7.66-5.72c.4.53.76,1.09,1.16,1.62l.8,1.05.2.26.39.47.42.49,1.67,1.94,3.35,3.9,3,3.41Zm60.81-15.35Zm5.74,32.57a14,14,0,0,1-3,2.07c-.25.14-.52.35-.76.46l-.68.23a11.71,11.71,0,0,0-1.31.59,2.47,2.47,0,0,1-1,.28l-1.26.23-2.23.4h-.49l-.77,0-1.61-.17a21.81,21.81,0,0,1-7-2.76,82.93,82.93,0,0,1-7.6-5.4c-2.46-2-5-4.14-7.25-6.28l-3.35-3.25c-1.12-1-2.29-2.46-3.43-3.66l-.52-.57.64-.46c2.54-1.93,5.31-3.59,8-5.33s5.33-3.05,8.27-4.57L904.9,507l1.17-.55.8-.31c.69-.29,1.37-.53,2-.74a21.61,21.61,0,0,1,7.47-1.27,6.57,6.57,0,0,0,1.14.07l1.25.3.62.15h0l.07,0c1.11.54,2.33.88,3.39,1.48a17.58,17.58,0,0,1,5.41,4.71,18,18,0,0,1-2.78,26.43Z"/><path class="cls-1" d="M803.39,285.62a34.41,34.41,0,0,0,9.16-8.12l.51-.68.07-.09.23-.34.07-.14.17-.28.64-1.11a21.26,21.26,0,0,0,2.4-9.95,24.4,24.4,0,0,0-.89-6.35l-.21-.76,0-.19,0-.1-.18-.51-.13-.29-.52-1.18c-.35-.79-.65-1.54-1.06-2.37-.6-1-1.21-1.91-1.85-2.85l-1-1.38-1-1.1-2.12-2.17-2.33-1.81C799,239.16,791.84,237,785,235.29l-5-1.21c-1.14-.26-2.34-.46-3.53-.65,0-1,0-2,.09-2.94.18-3.38.68-6.64,1-10l.62-5.39,2.23,0a105.71,105.71,0,0,0,10.84-.23c3.71-.27,7.24-.72,10.87-1.25a99.29,99.29,0,0,0,10.94-2.38,35.93,35.93,0,0,0,11.55-5.76c.91-.72,1.77-1.54,2.64-2.32l1.18-1.35.59-.68.29-.35.07-.08c-.31.46.51-.73.44-.63l.08-.14,1.37-2.17.68-1.08a7.44,7.44,0,0,0,.72-1.34,32,32,0,0,0,3.39-13.33,38.62,38.62,0,0,0-7.66-23.83l-.43-.59-.56-.51A38.58,38.58,0,0,0,804.56,147a32.56,32.56,0,0,0-13.08,1.76,57.24,57.24,0,0,0-5.94,2.78l-.18.09-.54.35-.26.19-.53.37-1,.73c-1,.84-2.1,1.77-3,2.66a36,36,0,0,0-6.91,10.83c-.4.92-.76,1.84-1.09,2.76l-.24.68-.12.35-.2.57-.36,1.24-1.47,4.91c-.89,3.42-1.8,7.27-2.43,10.82a102.17,102.17,0,0,0-1.39,10.8l-.2,2.25-5.45,0-5.14,0h-3.54l-1.25-.07c-1-.06-2-.14-3-.21-.06-1.11-.12-2.23-.25-3.36l-.72-5.29-.37-2.66c-.16-1.08-.32-1.74-.48-2.64-.27-1.63-.76-3.47-1.23-5.28s-1.13-3.54-1.77-5.31a38.07,38.07,0,0,0-2.56-5.16,29.45,29.45,0,0,0-8-9,39.93,39.93,0,0,0-5.52-3c-.44-.15-.71-.3-1.29-.47l-1.68-.48a25.56,25.56,0,0,0-3.23-.58,20.77,20.77,0,0,0-13,2.77c-.39.25-.68.39-1.15.73l-1.4,1c-1,.72-1.57,1.33-2.36,2a37.66,37.66,0,0,0-4.07,4.45,20,20,0,0,0-3.33,6.19l-.3,1-.07.26,0,.13c0-.21-.08.42-.07.38l0,.32-.18,1.27-.09.64-.05.87-.06,1.8a23.5,23.5,0,0,0,3.9,12.84,31.5,31.5,0,0,0,9.16,8.69,54.93,54.93,0,0,0,10.41,5.08,104.42,104.42,0,0,0,21.22,5c1,.15,1.93.25,2.89.37.35,6.12-.39,12.71-.8,19l-17.9,1.52-20.49,1.46,20.57.81,17.45.12-1.7,17.38-1.35,20.52,3.58-20.26,3.37-17.59c6.39.25,12.5.17,19,1.19,0,1,0,1.92.06,2.89a105.49,105.49,0,0,0,2.79,21.64,55,55,0,0,0,4,10.89,31.59,31.59,0,0,0,7.7,10,23.45,23.45,0,0,0,12.34,5.22,25.38,25.38,0,0,0,3.24.16l1.58-.05.4,0,.69-.08.08,0,.16,0,.63-.13a19.17,19.17,0,0,0,3.52-1.11A32.75,32.75,0,0,0,803.39,285.62Zm-23.45-85.37c.25-3.18.87-6.35,1.4-9.52s1.29-6,2.13-9.21l1.5-4.9.38-1.23.31-.81a27.33,27.33,0,0,1,4.86-8.41,7,7,0,0,0,.82-.81l1.06-.72.53-.37,0,0,0,0c1.15-.46,2.22-1.14,3.37-1.53a17.55,17.55,0,0,1,7.12-.86,23.64,23.64,0,0,1,13.29,5.93,23.55,23.55,0,0,1,4.5,13.82,13.83,13.83,0,0,1-.45,3.58c-.06.29-.08.62-.16.87l-.28.66a11,11,0,0,0-.45,1.37,2.58,2.58,0,0,1-.46.94l-.68,1.08L817.64,192l-.07.08-.26.28-.48.6-1.21,1.08a21.61,21.61,0,0,1-6.73,3.34,84.5,84.5,0,0,1-9.09,2.05c-3.14.48-6.41.93-9.52,1.18l-4.65.31c-1.49.17-3.36,0-5,.09h-.76Zm-39.57.08a97.81,97.81,0,0,1-18.79-3.88c-5.85-1.87-11.28-4.73-14.11-8.56a12,12,0,0,1-2.29-6.44l0-.77c0-.13,0-.24,0-.41l.06-.63.12-1.28,0-.11h0l0-.05a1.18,1.18,0,0,0,.07-.2,9.91,9.91,0,0,1,1.45-2.84,27.78,27.78,0,0,1,2.71-3.23c.49-.45,1.09-1.09,1.48-1.39l.62-.55c.2-.18.67-.46,1-.68a11.13,11.13,0,0,1,6.67-1.79c.59.06,1.3.1,1.84.21l.8.15a11.5,11.5,0,0,1,1.15.35,38.43,38.43,0,0,1,3.61,1.66,20.46,20.46,0,0,1,5.86,5.93c3.37,4.84,5.1,11.25,6.45,17.67l1,4.82c.13.66.23,1.35.33,2ZM764,219.52c-.24,3.49-.66,7-.75,10.5,0,.67,0,1.33,0,2a141.23,141.23,0,0,0-18.14.31c.51-2.88.9-5.67,1.34-8.52a71.34,71.34,0,0,0,.87-9.5l2,.2,1.31.11.33,0,.62,0h.64l2.57.06,5.13.11,4.54.07ZM796.35,277a3.52,3.52,0,0,1-1.37.39l-.46.08h-.12l-1,0a14.28,14.28,0,0,1-1.88-.17,11.9,11.9,0,0,1-6.18-2.94c-3.52-3.21-5.78-8.91-7-14.92a96.7,96.7,0,0,1-1.9-19.09v0c.57.14,1.15.28,1.73.46l4.88,1.59c6.29,2,12.44,4.41,16.93,8.26l1.65,1.43,1.37,1.61.69.78.43.77c.29.51.61,1,.94,1.47.31.72.61,1.58.91,2.36l.43,1.18v0l0,.12.1.48a14.18,14.18,0,0,1,.3,3.82,12.19,12.19,0,0,1-.76,3.52c-.22.6-.36.75-.6,1.31l-.69,1.09-.13.2h0l0,0-.28.32a24.54,24.54,0,0,1-6.4,5.12C797.41,276.51,796.65,276.94,796.35,277Z"/><path class="cls-1" d="M184.47,240.68c0-1,.05-1.93.06-2.89,6.05-1,12.69-1,19-1.19l3.38,17.62,3.59,20.24-1.35-20.55-1.69-17.36,17.46-.12,20.55-.8-20.53-1.45-17.85-1.51c-.41-6.37-1.12-12.46-.79-19l2.86-.36a106.11,106.11,0,0,0,21.24-5,55.14,55.14,0,0,0,10.4-5.08,31.32,31.32,0,0,0,9.17-8.7,23.48,23.48,0,0,0,3.9-12.82,24.49,24.49,0,0,0-.18-3.23l-.22-1.58-.05-.39c0,.09-.27-1.18-.16-.68l0-.07,0-.16L253,175a19.71,19.71,0,0,0-1.48-3.39,31.42,31.42,0,0,0-1.86-2.82,34.49,34.49,0,0,0-9-8.26l-.73-.44-.09-.06-.37-.19-.15-.06-.29-.14-1.18-.52a23.4,23.4,0,0,0-3.53-1.05,22.38,22.38,0,0,0-6.62-.3,24.55,24.55,0,0,0-6.22,1.55l-.73.29-.18.08-.1,0-.48.24-.28.16-1.12.63c-.75.44-1.46.82-2.25,1.31-.89.69-1.77,1.41-2.64,2.13l-1.27,1.11-1,1.15-1.93,2.33-1.55,2.51c-4,6.77-5.42,14.07-6.41,21l-.69,5.09c-.13,1.15-.2,2.37-.27,3.58l-2.94.21c-3.38.18-6.66,0-10,.06l-5.42-.06-.2-2.23a103.61,103.61,0,0,0-1.36-10.75c-.65-3.67-1.48-7.13-2.38-10.68a96.54,96.54,0,0,0-3.52-10.64A35.67,35.67,0,0,0,167.77,156c-.81-.83-1.71-1.6-2.59-2.38l-1.46-1-.74-.51-.37-.25-.1-.06c.5.26-.76-.43-.66-.37l-.14-.07-2.31-1.14-1.15-.56a6.86,6.86,0,0,0-1.4-.57,32,32,0,0,0-13.62-2,38.59,38.59,0,0,0-22.89,10.11l-.55.49-.45.61a38.6,38.6,0,0,0-7.66,23.83,32.52,32.52,0,0,0,3.11,12.82,60.12,60.12,0,0,0,3.39,5.61l.11.17.4.5.21.24.43.48.84,1c.94.92,2,1.91,3,2.68a36.08,36.08,0,0,0,11.49,5.74c1,.31,1.92.57,2.86.79l.72.18.35.09.59.13,1.26.23,5,.95c3.49.52,7.42,1,11,1.28a98.93,98.93,0,0,0,10.9.25l2.25,0,.62,5.41.55,5.11.28,2.55.07.64,0,.16v.17l.06,1.25c0,1,.07,2,.1,3-1.1.17-2.2.35-3.32.6l-5.19,1.26-2.6.64c-1.06.28-1.7.51-2.57.76-1.59.44-3.38,1.12-5.13,1.77s-3.4,1.5-5.09,2.32a38.51,38.51,0,0,0-4.86,3.08,29.35,29.35,0,0,0-8.11,8.91,39.43,39.43,0,0,0-2.38,5.8c-.11.45-.23.74-.34,1.33l-.3,1.73a28.46,28.46,0,0,0-.24,3.27,20.73,20.73,0,0,0,4.12,12.63c.28.36.45.63.84,1.07l1.18,1.27c.82.91,1.48,1.42,2.25,2.14a37.52,37.52,0,0,0,4.85,3.58,20.52,20.52,0,0,0,6.5,2.67l1.05.19.26,0,.13,0,.4,0h.32l1.28.05.65,0,.87,0,1.79-.13A23.52,23.52,0,0,0,170,283.22a31.52,31.52,0,0,0,7.68-10,55.59,55.59,0,0,0,4-10.88A104.72,104.72,0,0,0,184.47,240.68ZM235,169.17l-.08,0Zm-27.31,29.37,1.07-5c1.33-6.46,3.08-12.83,6.45-17.69l1.25-1.8,1.45-1.52.71-.77.72-.51c.47-.35.92-.71,1.36-1.09.68-.39,1.51-.77,2.26-1.15l1.12-.55h0l.11,0,.47-.14a14.32,14.32,0,0,1,3.77-.71,12.38,12.38,0,0,1,3.58.4c.62.14.78.28,1.37.45l1.15.57.2.1,0,0,.35.25a24.71,24.71,0,0,1,5.75,5.83c.29.5.81,1.22.91,1.5a3.55,3.55,0,0,1,.54,1.32l.11.45v.12l.09,1a15,15,0,0,1,0,1.89,11.92,11.92,0,0,1-2.28,6.45c-2.82,3.83-8.26,6.68-14.11,8.56a97.54,97.54,0,0,1-18.78,3.87h0C207.47,199.72,207.55,199.14,207.67,198.54ZM188,214.87c3.51-.12,7.08-.07,10.53-.35.66-.05,1.32-.13,2-.19a144.86,144.86,0,0,0,2.2,18c-2.91-.2-5.72-.3-8.6-.44a72.65,72.65,0,0,0-9.54.13c0-.66,0-1.33,0-2l0-1.32v-.33l0-.61-.06-.64-.21-2.56-.42-5.12-.4-4.51ZM167.17,201c-3.19.08-6.41-.21-9.62-.39s-6.1-.66-9.38-1.16l-5-1-1.26-.25L141,198c-.72-.17-1.41-.37-2.08-.59a21.75,21.75,0,0,1-6.79-3.36,6.17,6.17,0,0,0-.88-.73l-.84-1-.41-.49,0,0,0-.05c-.57-1.09-1.36-2.09-1.87-3.19a17.73,17.73,0,0,1-1.61-7A23.64,23.64,0,0,1,131,167.74a23.57,23.57,0,0,1,13.27-5.92,14.13,14.13,0,0,1,3.62.07c.28,0,.62,0,.88.07l.69.21a12.4,12.4,0,0,0,1.4.31,1.34,1.34,0,0,1,.4.08l.58.28,1.15.55,2,1,.09.06.32.23.64.42,1.2,1.09a21.71,21.71,0,0,1,4,6.34,81.5,81.5,0,0,1,3,8.83c.81,3.07,1.6,6.27,2.17,9.34l.8,4.59c.32,1.47.41,3.34.63,5l.08.76Zm4.21,39.34a98.32,98.32,0,0,1-1.89,19.09c-1.26,6-3.53,11.72-7.05,14.93a12,12,0,0,1-6.15,2.95l-.77.1a3.43,3.43,0,0,1-.4.06h-2l-.06,0-.21,0a10,10,0,0,1-3-1.15,27.29,27.29,0,0,1-3.51-2.36c-.49-.44-1.2-1-1.53-1.33l-.62-.56c-.21-.18-.52-.62-.79-.91a11.16,11.16,0,0,1-2.46-6.44c0-.6,0-1.31,0-1.85L141,262a10.91,10.91,0,0,1,.23-1.18,36.44,36.44,0,0,1,1.28-3.77,20.38,20.38,0,0,1,5.28-6.45c4.46-3.85,10.66-6.26,16.89-8.26l4.69-1.54c.65-.2,1.32-.37,2-.53Z"/><path class="cls-1" d="M117.27,514l11.59-13.06L142,485.11l-14.8,14.28-13.07,12.25c-5-3.95-10-7.49-14.63-12.1.55-.79,1.1-1.57,1.64-2.37A106.24,106.24,0,0,0,111.62,478a56.11,56.11,0,0,0,3.19-11.14,31.27,31.27,0,0,0-.34-12.63,23.53,23.53,0,0,0-6.91-11.48,25.15,25.15,0,0,0-2.53-2l-1.31-.9-.33-.22c.09,0-1.07-.6-.61-.34l-.08,0-.14-.07-.59-.26a18.16,18.16,0,0,0-3.5-1.17,31.12,31.12,0,0,0-3.34-.51A34.49,34.49,0,0,0,83,438.44l-.82.24-.1,0-.39.16-.14.06-.3.13-1.17.52a22.24,22.24,0,0,0-3.15,1.92,22.59,22.59,0,0,0-4.65,4.72,24.46,24.46,0,0,0-3,5.66l-.28.74-.06.18,0,.1-.15.52-.07.31L68.35,455c-.17.85-.37,1.63-.53,2.54q-.13,1.7-.18,3.39l0,1.69.2,1.5.44,3,.83,2.83c2.35,7.51,6.82,13.44,11.33,18.82l3.32,3.92c.77.87,1.62,1.73,2.48,2.59-.6.78-1.2,1.56-1.81,2.33-2.13,2.63-4.45,5-6.65,7.47l-3.67,4-1.79-1.34a102.93,102.93,0,0,0-8.9-6.18c-3.16-2-6.29-3.68-9.53-5.38a97.36,97.36,0,0,0-10.25-4.5,36.08,36.08,0,0,0-12.73-2.14c-1.16.05-2.34.21-3.5.34l-1.75.39-.88.21-.43.1-.11,0-.72.25-.15.06-2.39,1-1.19.48a8.08,8.08,0,0,0-1.37.66,32.06,32.06,0,0,0-10.56,8.8A38.47,38.47,0,0,0,0,525.56v.74l.16.74a38.57,38.57,0,0,0,12.57,21.64,32.52,32.52,0,0,0,11.62,6.26,58.81,58.81,0,0,0,6.43,1.24l.2,0,.65,0h1l1.28,0a38.37,38.37,0,0,0,4-.4,35.82,35.82,0,0,0,11.95-4.7c.87-.51,1.71-1,2.51-1.59l.6-.41.3-.21.5-.35,1-.78,4.07-3.12c2.72-2.25,5.73-4.82,8.32-7.32a102,102,0,0,0,7.48-7.92l1.48-1.7,4.44,3.16,4.16,3,2.08,1.51.53.37.12.1.07,0v0l.06,0,1,.79c.77.63,1.49,1.3,2.25,1.95-.6.92-1.2,1.84-1.75,2.83l-2.53,4.7-1.27,2.36c-.5,1-.76,1.6-1.15,2.42-.74,1.48-1.43,3.26-2.11,5s-1.17,3.53-1.69,5.33a38.93,38.93,0,0,0-1,5.68,29.57,29.57,0,0,0,1.2,12,39.57,39.57,0,0,0,2.72,5.65,13.22,13.22,0,0,0,.76,1.14l1.08,1.38a27,27,0,0,0,2.27,2.37A20.72,20.72,0,0,0,99.46,595c.46,0,.78.09,1.36.09l1.73,0c1.22,0,2.06-.16,3.1-.24a39,39,0,0,0,5.91-1.21,20.43,20.43,0,0,0,6.33-3l.84-.65.21-.17.1-.08a3.38,3.38,0,0,0,.28-.28l.22-.23.9-.93.44-.46.55-.68,1.11-1.41A23.52,23.52,0,0,0,126.93,573a31.29,31.29,0,0,0-2.3-12.41,54.94,54.94,0,0,0-5.43-10.23A105.15,105.15,0,0,0,105,533.79c-.7-.67-1.41-1.32-2.12-2,3.32-5.15,7.78-10,11.81-14.88L130,526.21l17.44,10.87-16.17-12.75ZM63.93,520.1c-2.08,2.42-4.44,4.62-6.73,6.89s-4.58,4.09-7.13,6.19L46,536.26l-1,.77-.72.48a21.32,21.32,0,0,1-1.84,1.14,21.26,21.26,0,0,1-7,2.8,7.23,7.23,0,0,0-1.14.17l-1.28,0-.65,0h-.11c-1.2-.31-2.46-.39-3.62-.75a17.44,17.44,0,0,1-6.27-3.48,18,18,0,0,1-2.78-26.43A13.48,13.48,0,0,1,22,508.26a7.27,7.27,0,0,1,.64-.61l.62-.37a10.44,10.44,0,0,0,1.16-.85c.12-.07.15-.15.33-.23l.59-.25,1.19-.48,2.09-.86.1,0,.38-.09.74-.19,1.61-.17a22.07,22.07,0,0,1,7.41,1.25,85.48,85.48,0,0,1,8.56,3.7c2.82,1.45,5.73,3,8.39,4.64l3.95,2.47c1.3.75,2.75,1.94,4.12,2.88l.62.44Zm22.24-35.91c-3.91-5.31-7.47-10.87-8.83-16.62l-.5-2.13-.16-2.11-.1-1,.1-.88a16.91,16.91,0,0,0,.1-1.74c.17-.76.45-1.63.66-2.44l.34-1.2,0,0,0-.12.2-.44a14.39,14.39,0,0,1,2-3.27,12.37,12.37,0,0,1,2.69-2.4c.52-.36.73-.39,1.25-.71l1.2-.47.21-.09h0l.41-.09a25,25,0,0,1,8.2-.38c.55.12,1.43.22,1.71.33a3.54,3.54,0,0,1,1.34.49l.41.2.1.08.78.59A14.33,14.33,0,0,1,99.82,451a12,12,0,0,1,3.28,6c1,4.67-.57,10.61-3.08,16.21a96.93,96.93,0,0,1-9.69,16.55s0,0,0,0c-.38-.45-.76-.9-1.13-1.39Zm22.73,73.29c3.63,4.95,6.35,10.46,6.38,15.22a11.93,11.93,0,0,1-1.93,6.54l-.44.64a2.45,2.45,0,0,1-.22.35l-.43.48-.84,1-.07.08h0l0,0-.17.13a10,10,0,0,1-2.84,1.44,29.25,29.25,0,0,1-4.1,1c-.66.07-1.52.25-2,.26l-.83.07a10.12,10.12,0,0,1-1.21,0,11.11,11.11,0,0,1-6.43-2.48A16.66,16.66,0,0,1,92.34,581l-.56-.59a11.5,11.5,0,0,1-.73-1,36.32,36.32,0,0,1-1.94-3.48,20.51,20.51,0,0,1-1.27-8.24c.13-5.89,2.49-12.11,5.17-18.08l2-4.52c.29-.61.61-1.22.94-1.82l0,0A97.92,97.92,0,0,1,108.9,557.48Zm-4-36.72a71.83,71.83,0,0,0-6.29,7.17l-1.48-1.32-1-.86-.24-.22-.49-.37-.51-.39-2-1.56-4.09-3.11-3.63-2.73,3-3.47c2.25-2.69,4.68-5.31,6.79-8l1.18-1.61A143.38,143.38,0,0,0,111,514.65C108.9,516.68,106.93,518.71,104.91,520.76Z"/><path class="cls-1" d="M320.51,815.22l-.09-1.28,0-.65-.14-.86-.31-1.77a23.48,23.48,0,0,0-6.49-11.75,31.44,31.44,0,0,0-10.76-6.6,55.21,55.21,0,0,0-11.24-2.81,105.15,105.15,0,0,0-21.81-.51c-1,.06-1.93.16-2.9.24-1.61-5.92-2.26-12.51-3.16-18.73l17.18-5.2,19.75-5.69-20.29,3.49-17.1,3.5-1.94-17.35-2.95-20.35.71,20.55.36,17.92c-6.29,1.08-12.26,2.42-18.79,2.78-.21-.94-.42-1.87-.66-2.81a106.81,106.81,0,0,0-7.22-20.6,55.27,55.27,0,0,0-6.15-9.82,31.48,31.48,0,0,0-9.61-8.21,23.59,23.59,0,0,0-13.15-2.54,27.38,27.38,0,0,0-3.2.52l-1.54.38-.39.1c.09,0-1.15.39-.66.23l-.08,0-.14.06-.59.26a18.78,18.78,0,0,0-3.21,1.82,31,31,0,0,0-2.62,2.14,34.58,34.58,0,0,0-7.27,9.85l-.36.77-.05.1-.15.39,0,.15-.1.31-.39,1.22a21.38,21.38,0,0,0-.68,3.62,22.4,22.4,0,0,0,.4,6.61,23.91,23.91,0,0,0,2.18,6l.37.71.09.17,0,.09.29.46.18.26.75,1c.52.7,1,1.37,1.54,2.1q1.17,1.23,2.4,2.4l1.23,1.16L193,770l2.52,1.68,2.66,1.29c7.15,3.27,14.55,3.91,21.57,4.17l5.13.15c1.15,0,2.35,0,3.54-.1.18,1,.4,1.93.56,2.9.54,3.35.72,6.63,1.11,9.94l.5,5.4-2.18.43a100.66,100.66,0,0,0-10.56,2.48c-3.58,1-6.93,2.21-10.37,3.48a96.77,96.77,0,0,0-10.2,4.61,35.59,35.59,0,0,0-10.11,8c-.73.89-1.41,1.87-2.09,2.82l-.89,1.56-.42.79-.21.4-.06.1c-.13.3.21-.54-.3.7l0,.15-.89,2.41-.44,1.2a7.52,7.52,0,0,0-.43,1.46,32,32,0,0,0-.53,13.74,38.6,38.6,0,0,0,12.44,21.72l.55.49.65.38a38.57,38.57,0,0,0,24.5,5.14,32.52,32.52,0,0,0,12.42-4.44,59.21,59.21,0,0,0,5.23-4l.16-.13.45-.46.22-.23.44-.47.88-.94c.81-1,1.68-2.17,2.35-3.22a35.94,35.94,0,0,0,4.5-12c.2-1,.37-2,.5-2.93l.1-.72,0-.37.06-.6.1-1.28.42-5.12c.15-3.52.25-7.48.12-11.08a99.35,99.35,0,0,0-.89-10.86l-.27-2.23,5.32-1.19,5-1.08,2.5-.54.63-.14.16,0,.06,0,.11,0,1.24-.19,2.94-.4c.29,1.07.58,2.15.95,3.23l1.8,5,.91,2.52c.38,1,.68,1.64,1,2.48.6,1.54,1.46,3.24,2.3,4.92s1.84,3.22,2.83,4.82a38.9,38.9,0,0,0,3.58,4.51,29.32,29.32,0,0,0,9.71,7.13,38.67,38.67,0,0,0,6,1.76c.45.06.75.15,1.35.2l1.75.12a27.26,27.26,0,0,0,3.28-.1,20.85,20.85,0,0,0,12.13-5.42c.33-.32.58-.52,1-.95l1.15-1.3c.81-.91,1.25-1.63,1.89-2.46a39.22,39.22,0,0,0,3.06-5.2,20.51,20.51,0,0,0,2-6.75l.08-1.06,0-.27v-.13c0,.2,0-.44,0-.4Zm-95.22-44.9-5.12-.54c-6.56-.65-13.08-1.72-18.26-4.56L200,764.17l-1.67-1.29-.84-.63-.59-.66c-.39-.44-.79-.84-1.22-1.24-.45-.64-.92-1.42-1.38-2.12l-.67-1.07v0l-.05-.12-.19-.45a14,14,0,0,1-1.09-3.67,12.12,12.12,0,0,1,0-3.61c.08-.63.2-.8.31-1.4l.45-1.21.08-.21,0,0,.21-.38a24.65,24.65,0,0,1,5.19-6.33c.47-.33,1.13-.92,1.4-1.06a3.49,3.49,0,0,1,1.25-.66l.43-.17.13,0,1-.19a13.77,13.77,0,0,1,1.88-.23,11.9,11.9,0,0,1,6.65,1.6c4.11,2.4,7.51,7.51,10,13.13a97.47,97.47,0,0,1,5.82,18.27v0C226.48,770.39,225.89,770.37,225.29,770.32Zm7.13,59.07-.45,5.12-.12,1.28-.14.85c-.09.74-.22,1.45-.37,2.13a21.52,21.52,0,0,1-2.64,7.11,7.86,7.86,0,0,0-.63,1l-.88.93-.44.47,0,0,0,0c-1,.69-1.94,1.58-3,2.2a17.66,17.66,0,0,1-6.78,2.33,23.71,23.71,0,0,1-14.24-3,23.54,23.54,0,0,1-7.27-12.59,13.63,13.63,0,0,1-.31-3.59,6.69,6.69,0,0,1,0-.89l.14-.7a13.5,13.5,0,0,0,.14-1.44,2.59,2.59,0,0,1,.26-1l.43-1.21.77-2.13.05-.09.19-.33.35-.69,1-1.3a21.61,21.61,0,0,1,5.88-4.67,85.49,85.49,0,0,1,8.48-3.89c3-1.12,6.07-2.24,9.06-3.13l4.48-1.28c1.43-.47,3.28-.75,4.9-1.14l.74-.16.08.78c.41,3.17.46,6.4.61,9.61S232.57,826.09,232.42,829.39ZM259,790l-1.31.16-.32.05-.61.1-.63.12-2.52.48-5,1-4.45.87-.56-4.57c-.48-3.47-.81-7-1.44-10.43-.13-.65-.27-1.3-.41-2a140.25,140.25,0,0,0,17.68-4.08c.12,2.92.3,5.73.47,8.62A73.31,73.31,0,0,0,261,789.8Zm50.49,26.34,0,0c0,.07,0,.14,0,.21a9.65,9.65,0,0,1-.82,3.08,26.9,26.9,0,0,1-2,3.73c-.38.54-.83,1.3-1.15,1.67l-.5.66a10.63,10.63,0,0,1-.83.88,11.07,11.07,0,0,1-6.14,3.13c-.6.07-1.3.17-1.84.18l-.82,0c-.25,0-.8-.08-1.19-.11a35.43,35.43,0,0,1-3.89-.87,20.61,20.61,0,0,1-7-4.58c-4.29-4-7.33-9.94-10-15.94l-2-4.5c-.26-.62-.5-1.27-.73-1.92h.05a98.59,98.59,0,0,1,19.19-.12c6.11.63,12,2.29,15.58,5.45a12,12,0,0,1,3.57,5.82l.18.75a2.66,2.66,0,0,1,.11.39l.07.64.14,1.27,0,.11Z"/><path class="cls-1" d="M630.63,833.41c-.13-1.21-.37-2-.56-3a38.65,38.65,0,0,0-1.82-5.75,20.42,20.42,0,0,0-3.69-6l-.74-.77-.19-.19-.09-.09-.31-.25-.25-.2-1-.79-.51-.4-.73-.48-1.53-.94a23.44,23.44,0,0,0-13.07-3A31.53,31.53,0,0,0,594,815.06a54.84,54.84,0,0,0-9.6,6.47,105.45,105.45,0,0,0-15,15.86c-.6.76-1.17,1.54-1.75,2.31-5.48-2.75-10.82-6.68-16-10.17l7.63-16.25,9-18.48-11,17.41-8.83,15-14.19-10.17-17.1-11.43,15.75,13.23,13.55,11.72c-3.41,5.4-6.4,10.74-10.5,15.82-.84-.47-1.68-.94-2.54-1.39a106.94,106.94,0,0,0-20.13-8.41,55.19,55.19,0,0,0-11.41-2,31.19,31.19,0,0,0-12.53,1.65,23.38,23.38,0,0,0-10.69,8.07,24.22,24.22,0,0,0-1.75,2.73l-.75,1.4-.19.35c0-.09-.48,1.11-.28.64l0,.07-.05.16-.2.6a18.68,18.68,0,0,0-.8,3.61,29.84,29.84,0,0,0-.16,3.38,34.5,34.5,0,0,0,2.45,12l.33.79,0,.1.19.37.07.14.17.28.64,1.11a21.24,21.24,0,0,0,7.42,7,23.54,23.54,0,0,0,5.93,2.41l.77.2.19,0,.1,0,.53.1.32,0,1.28.14c.86.09,1.66.2,2.59.26,1.13,0,2.26-.09,3.38-.17l1.68-.14,1.48-.36,2.93-.75,2.73-1.11c7.22-3.13,12.66-8.2,17.54-13.24l3.55-3.71c.79-.86,1.55-1.8,2.32-2.74l2.51,1.55c2.83,1.84,5.4,3.91,8.12,5.84l4.35,3.23-1.15,1.92a106.7,106.7,0,0,0-5.22,9.5c-1.62,3.35-3,6.63-4.35,10a100.88,100.88,0,0,0-3.4,10.66,35.6,35.6,0,0,0-.79,12.89c.17,1.14.44,2.3.69,3.44l.58,1.7.3.85.15.43,0,.1c-.24-.49.37.8.31.69l.08.14,1.2,2.27.6,1.13a6.73,6.73,0,0,0,.8,1.3,31.76,31.76,0,0,0,9.85,9.59,38.66,38.66,0,0,0,24.46,5.29l.73-.08.72-.23a38.5,38.5,0,0,0,20.21-14.77,32.39,32.39,0,0,0,5-12.2,55,55,0,0,0,.57-6.53v-.2l0-.65,0-.32-.06-.64-.11-1.28c-.23-1.29-.48-2.7-.82-3.9a35.83,35.83,0,0,0-5.92-11.39c-.6-.82-1.21-1.6-1.85-2.33l-.47-.56-.24-.28-.4-.45-.88-.93-3.53-3.73c-2.52-2.47-5.38-5.2-8.14-7.51a103.74,103.74,0,0,0-8.67-6.61l-1.85-1.29,2.68-4.75,2.56-4.46,1.28-2.23.31-.55.09-.14,0-.07.06-.08.69-1c.55-.83,1.14-1.61,1.7-2.43,1,.49,2,1,3,1.44l4.94,2,2.48,1c1,.41,1.67.6,2.52.91,1.55.58,3.39,1.08,5.2,1.57s3.63.8,5.48,1.13a40.31,40.31,0,0,0,5.74.36A29.47,29.47,0,0,0,617,857a38.9,38.9,0,0,0,5.33-3.3c.36-.3.62-.46,1.06-.87l1.26-1.22a27.12,27.12,0,0,0,2.12-2.51,20.75,20.75,0,0,0,4.09-12.63c0-.46,0-.79-.06-1.36ZM525.89,857.86l-3.82,3.44c-4.87,4.44-10,8.56-15.61,10.52a21.65,21.65,0,0,1-7.8,1.38c-.77-.1-1.66-.28-2.5-.41l-1.21-.2,0,0-.12,0-.47-.15a14.45,14.45,0,0,1-3.45-1.65,11.79,11.79,0,0,1-2.67-2.43c-.42-.48-.47-.68-.85-1.17l-.59-1.14-.1-.2,0,0-.14-.41a24.47,24.47,0,0,1-1.23-8.09c.07-.57.07-1.45.15-1.74a3.56,3.56,0,0,1,.35-1.39l.17-.43.06-.11.5-.84a14.62,14.62,0,0,1,1.09-1.54,11.9,11.9,0,0,1,5.64-3.88c4.53-1.44,10.6-.55,16.44,1.37a97.25,97.25,0,0,1,17.47,7.9h0C526.75,857,526.34,857.44,525.89,857.86Zm16.8-7.56-1.72-1a141.57,141.57,0,0,0,8.79-15.86c2.24,1.87,4.46,3.61,6.72,5.41a72.65,72.65,0,0,0,7.79,5.5c-.39.54-.78,1.07-1.16,1.61l-.75,1.09-.19.27-.32.52-.34.55-1.33,2.19L557.51,855l-2.33,3.9-3.77-2.65C548.5,854.25,545.65,852.11,542.69,850.3Zm25,35.34c2.46,2.11,4.56,4.12,6.91,6.44l3.49,3.77.88.94.54.66c.49.57.93,1.14,1.33,1.71a21.49,21.49,0,0,1,3.52,6.72,7.63,7.63,0,0,0,.29,1.1l.1,1.28,0,.64V909c-.18,1.22-.12,2.49-.36,3.68a17.67,17.67,0,0,1-2.81,6.6,18,18,0,0,1-26,5.53,13.16,13.16,0,0,1-2.88-2.18c-.22-.19-.49-.38-.67-.57l-.43-.58a12.17,12.17,0,0,0-1-1.07,2.39,2.39,0,0,1-.57-.86l-.61-1.13-1.07-2,0-.1-.12-.36-.28-.72-.32-1.58a21.65,21.65,0,0,1,.46-7.49,87,87,0,0,1,2.79-8.91c1.15-3,2.39-6,3.73-8.83l2.06-4.19c.6-1.37,1.63-2.93,2.42-4.39l.37-.67.64.48C562.74,881.48,565.17,883.6,567.66,885.64Zm51.1-42.08c-.35.49-.74,1.08-1.1,1.49l-.53.62a9.25,9.25,0,0,1-.88.81,36.24,36.24,0,0,1-3.25,2.31,20.5,20.5,0,0,1-8.06,2.11c-5.88.5-12.3-1.2-18.53-3.24l-4.69-1.51c-.64-.22-1.28-.48-1.92-.74l0,0A97.49,97.49,0,0,1,592.58,831c4.55-4.13,9.74-7.41,14.48-7.94a11.88,11.88,0,0,1,6.71,1.24l.68.36c.12.07.21.1.36.19l.52.37,1,.75.08.06h0l0,.05.14.16a9.67,9.67,0,0,1,1.74,2.67,28.68,28.68,0,0,1,1.44,4c.14.65.41,1.49.47,2l.16.81c.06.27.06.81.1,1.2A11.16,11.16,0,0,1,618.76,843.56Z"/><path class="cls-1" d="M883.69,677.28a57.84,57.84,0,0,0-4.47-4.79l-.15-.14-.5-.41-.26-.19-.51-.39-1-.77c-1.11-.7-2.34-1.45-3.45-2a36.22,36.22,0,0,0-12.43-3.22c-1-.09-2-.16-3-.18l-.73,0-.37,0h-.6l-1.28,0-5.14.13c-3.52.21-7.47.53-11,1a101,101,0,0,0-10.71,2l-2.2.5-1.73-5.17-1.61-4.88-.79-2.44-.21-.61,0-.15,0-.08v0l0-.06-.31-1.21c-.25-1-.48-1.92-.71-2.88,1-.4,2.07-.8,3.11-1.28l4.82-2.31,2.4-1.17c1-.49,1.57-.85,2.37-1.28,1.47-.76,3.07-1.79,4.65-2.8s3-2.17,4.49-3.33a38,38,0,0,0,4.12-4,29.47,29.47,0,0,0,6.08-10.4,40.42,40.42,0,0,0,1.11-6.17,13.53,13.53,0,0,0,.06-1.37l-.06-1.75a26,26,0,0,0-.45-3.25,20.72,20.72,0,0,0-6.65-11.49,13.5,13.5,0,0,0-1.05-.87l-1.41-1c-1-.71-1.75-1.08-2.65-1.63a38.58,38.58,0,0,0-5.49-2.49,20.54,20.54,0,0,0-6.91-1.26l-1.07,0h-.4l-.39.06-.31,0-1.27.23-.63.11-.85.22-1.72.5a23.41,23.41,0,0,0-11,7.68,31.43,31.43,0,0,0-5.44,11.4,55,55,0,0,0-1.61,11.46A104.48,104.48,0,0,0,806,647c.16,1,.36,1.91.54,2.86-5.71,2.22-12.2,3.56-18.29,5.1l-7-16.54-7.71-19,5.58,19.82,5.28,16.63-17.06,3.75-19.93,5.06,20.38-2.85,17.77-2.23c1.73,6.14,3.69,11.94,4.72,18.39-.9.31-1.81.61-2.72,1a106,106,0,0,0-19.73,9.34,55.48,55.48,0,0,0-9.12,7.13,31.56,31.56,0,0,0-7.16,10.42,23.5,23.5,0,0,0-1.15,13.35,25.5,25.5,0,0,0,.85,3.12l.54,1.5.14.37c-.05-.08.51,1.11.29.64l0,.07.08.14.32.55a18.31,18.31,0,0,0,2.14,3,31,31,0,0,0,2.41,2.37,34.46,34.46,0,0,0,10.54,6.21l.81.28.11,0,.41.11.15,0,.31.06,1.26.27a22.7,22.7,0,0,0,3.67.29,22.22,22.22,0,0,0,6.53-1.08,24.24,24.24,0,0,0,5.76-2.81l.67-.44.16-.1.08-.06.43-.33.24-.21,1-.86c.64-.59,1.26-1.11,1.93-1.75.73-.86,1.44-1.74,2.13-2.63l1-1.34.72-1.34,1.41-2.68,1-2.78c2.51-7.45,2.37-14.89,1.89-21.89l-.38-5.12c-.11-1.15-.29-2.33-.47-3.51.95-.28,1.88-.6,2.82-.86,3.27-.88,6.52-1.41,9.77-2.14l5.32-1.07.66,2.13a103.26,103.26,0,0,0,3.57,10.24c1.39,3.45,2.92,6.66,4.54,10a98.37,98.37,0,0,0,5.65,9.67,36.17,36.17,0,0,0,9,9.21c1,.64,2,1.2,3,1.78l1.65.72.83.34.42.17.1,0c-.53-.15.84.26.72.22l.16,0,2.49.63,1.25.32a7.18,7.18,0,0,0,1.49.27,32.1,32.1,0,0,0,13.72-.9,38.53,38.53,0,0,0,20.3-14.65l.43-.59.31-.69a38.48,38.48,0,0,0,2.54-24.9A32.34,32.34,0,0,0,883.69,677.28ZM782,726.12c-.15.12-.08.06,0,0Zm10.05-27.94c0,6.6-.34,13.19-2.63,18.64l-.85,2-1.1,1.79-.54.9-.6.65c-.39.44-.75.89-1.1,1.35-.59.52-1.32,1.06-2,1.59l-1,.77,0,0-.11.06-.42.24a14.34,14.34,0,0,1-3.55,1.47,12.28,12.28,0,0,1-3.58.36c-.64,0-.82-.11-1.44-.16l-1.24-.32-.22-.06,0,0-.4-.17a24.88,24.88,0,0,1-6.84-4.5c-.38-.43-1-1-1.2-1.28a3.48,3.48,0,0,1-.79-1.18l-.22-.42,0-.11-.28-.94a14,14,0,0,1-.43-1.84,11.88,11.88,0,0,1,.89-6.79c2-4.33,6.69-8.25,12-11.3A96.57,96.57,0,0,1,792,691.26h0c0,.59.08,1.18.09,1.79ZM807.94,673c-3.4.85-6.91,1.54-10.22,2.53-.64.19-1.27.4-1.91.6a141.32,141.32,0,0,0-5.9-17.15c2.89-.42,5.67-.9,8.52-1.37a72.83,72.83,0,0,0,9.29-2.11c.15.65.28,1.3.43,1.94l.31,1.29.07.31.17.6.18.61.74,2.46,1.48,4.92,1.33,4.34Zm11-28.38a97.78,97.78,0,0,1-2.12-19.07c0-6.14,1-12.19,3.78-16.07A12,12,0,0,1,826,605.3l.73-.27.38-.14.63-.14,1.25-.28.1,0h.28a10,10,0,0,1,3.14.49,28.76,28.76,0,0,1,3.92,1.59c.58.33,1.38.69,1.78,1l.72.42c.24.13.64.49,1,.73a11.14,11.14,0,0,1,3.75,5.78c.13.59.3,1.28.36,1.82l.11.81a9,9,0,0,1,0,1.19,37,37,0,0,1-.46,4,20.73,20.73,0,0,1-3.82,7.41c-3.57,4.7-9.13,8.33-14.81,11.59l-4.27,2.48c-.59.33-1.21.63-1.83.93A.43.43,0,0,1,818.9,644.59Zm54.59,62.62a23.52,23.52,0,0,1-11.76,8.56,14,14,0,0,1-3.54.68c-.29,0-.62.11-.88.11l-.71-.06a11.69,11.69,0,0,0-1.45,0,2.43,2.43,0,0,1-1-.15l-1.25-.31-2.19-.53-.11,0-.35-.15-.72-.28-1.39-.81a21.67,21.67,0,0,1-5.26-5.36,84.63,84.63,0,0,1-4.75-8c-1.43-2.83-2.87-5.8-4.06-8.68l-1.74-4.33c-.62-1.36-1.1-3.18-1.65-4.74l-.24-.73.77-.16c3.11-.73,6.31-1.12,9.5-1.61s6.1-.62,9.4-.81l5.14-.08,1.28,0,.86.05c.75,0,1.47.07,2.17.15a21.56,21.56,0,0,1,7.34,1.87,6.67,6.67,0,0,0,1,.53l1,.78.5.4,0,0,0,0c.79,1,1.77,1.76,2.5,2.73a17.63,17.63,0,0,1,3,6.51A23.57,23.57,0,0,1,873.49,707.21Z"/><path class="cls-1" d="M927.23,330l-.16-.72-.3-.69A38.56,38.56,0,0,0,910,310a32.57,32.57,0,0,0-12.66-3.71,57.24,57.24,0,0,0-6.55.12h-.2l-.65.1-.31.06-.63.13-1.26.24c-1.26.36-2.65.76-3.8,1.22a36,36,0,0,0-10.71,7.09c-.74.68-1.45,1.37-2.11,2.08l-.51.52-.66.71-.83,1-3.35,3.9c-2.19,2.76-4.61,5.9-6.61,8.88a102.23,102.23,0,0,0-5.67,9.31l-1.1,2-5-2.17-4.69-2.07-2.35-1-.59-.26-.14-.07-.08,0,0,0-.06,0-1.1-.57c-.89-.46-1.73-1-2.61-1.45.39-1,.78-2.05,1.12-3.13l1.5-5.12.74-2.57c.29-1.06.42-1.73.63-2.61.42-1.6.72-3.49,1-5.33s.41-3.7.54-5.57a38.43,38.43,0,0,0-.24-5.75,29.34,29.34,0,0,0-3.66-11.48,39.23,39.23,0,0,0-3.83-4.95c-.34-.33-.52-.57-1-1l-1.35-1.13a25.4,25.4,0,0,0-2.71-1.84,20.78,20.78,0,0,0-13-2.75c-.46.07-.78.07-1.35.19l-1.69.38c-1.2.27-2,.58-3,.88a38.35,38.35,0,0,0-5.53,2.42,20.27,20.27,0,0,0-5.56,4.29l-.69.82-.17.21-.08.1c.11-.18-.24.36-.22.33l-.17.27-.68,1.09-.34.55-.39.77-.79,1.62A23.46,23.46,0,0,0,793.21,310a31.3,31.3,0,0,0,4.84,11.67,55.33,55.33,0,0,0,7.43,8.87,105.4,105.4,0,0,0,17.34,13.24c.83.52,1.66,1,2.49,1.51-2.18,5.73-5.52,11.45-8.45,17l-17-5.88-19.31-7,18.46,9.11,15.89,7.2-8.63,15.19-9.58,18.2L808.24,382l10.24-14.71c5.73,2.83,11.35,5.25,16.83,8.8-.38.88-.76,1.76-1.12,2.66a106.2,106.2,0,0,0-6.25,20.91,55.47,55.47,0,0,0-.81,11.56,31.62,31.62,0,0,0,3,12.29,23.48,23.48,0,0,0,9.15,9.78,24.6,24.6,0,0,0,2.9,1.46l1.47.6.37.15.66.2.08,0,.16,0,.62.13a18.45,18.45,0,0,0,3.68.42,30.27,30.27,0,0,0,3.37-.2,34.26,34.26,0,0,0,11.67-3.69L865,432l.09-.06.35-.22.13-.1.26-.19,1-.75a22.19,22.19,0,0,0,2.68-2.53,22.66,22.66,0,0,0,3.56-5.58,23.9,23.9,0,0,0,1.77-6.16l.12-.78,0-.2v-.1l0-.54v-1.6c0-.88,0-1.68,0-2.61-.15-1.11-.33-2.24-.53-3.35l-.31-1.65-.51-1.43-1.06-2.84-1.39-2.6c-3.86-6.86-9.48-11.73-15-16.05l-4.06-3.15c-.94-.69-1.95-1.36-3-2,.43-.89.85-1.78,1.29-2.65,1.53-3,3.31-5.79,5-8.69l2.76-4.67,2,.94a105.81,105.81,0,0,0,10,4.2c3.5,1.27,6.92,2.29,10.44,3.27a98.34,98.34,0,0,0,11,2.28,35.84,35.84,0,0,0,12.89-.56c1.12-.29,2.24-.68,3.35-1l1.63-.75.82-.38.4-.2.1,0c-.47.29.76-.46.66-.39l.13-.1,2.13-1.42,1.07-.72a7,7,0,0,0,1.2-.93,31.88,31.88,0,0,0,8.51-10.8A38.63,38.63,0,0,0,927.23,330Zm-113.15-8.57c-4.58-4.1-8.39-8.91-9.41-13.57a12,12,0,0,1,.52-6.8l.3-.72c0-.12.07-.22.14-.38l.32-.56.63-1.11,0-.1h0l0,0,.15-.16a9.65,9.65,0,0,1,2.47-2,26.75,26.75,0,0,1,3.8-1.85c.63-.21,1.43-.56,1.91-.67l.79-.25A11.22,11.22,0,0,1,817,293a11.06,11.06,0,0,1,6.81,1.08,18,18,0,0,1,1.59.94l.68.46c.21.13.6.53.9.79a34.88,34.88,0,0,1,2.63,3,20.65,20.65,0,0,1,2.95,7.8c1.1,5.79.08,12.35-1.3,18.76l-1,4.83c-.14.66-.34,1.32-.53,2l-.05,0A98.06,98.06,0,0,1,814.08,321.41ZM838.45,369c-.28.6-.54,1.21-.82,1.81a143.31,143.31,0,0,0-16.7-7.09c1.63-2.42,3.13-4.81,4.69-7.24a73.19,73.19,0,0,0,4.65-8.32l1.73,1,1.16.63.29.16.55.27.58.27,2.32,1.1,4.64,2.19,4.12,1.91-2.24,4C841.77,362.82,839.94,365.88,838.45,369Zm13.09,19.35c4.93,4.39,9.58,9.08,12.11,14.43l.92,2,.6,2,.31,1,.08.88c.06.58.15,1.15.26,1.72,0,.79-.09,1.69-.13,2.53l-.08,1.25v0l0,.12-.1.48a14.87,14.87,0,0,1-1.28,3.61,12.21,12.21,0,0,1-2.13,2.91c-.44.46-.63.54-1.08,1l-1.07.71-.21.14,0,0-.05,0-.39.19a25,25,0,0,1-7.92,2.07c-.57,0-1.45.08-1.75,0a3.52,3.52,0,0,1-1.41-.2l-.45-.12-.11-.05-.89-.41a15.31,15.31,0,0,1-1.65-.92,11.92,11.92,0,0,1-4.45-5.21c-1.91-4.35-1.66-10.49-.36-16.49a96.56,96.56,0,0,1,6-18.2v0c.46.36.93.72,1.4,1.12Zm59.68-40a14.18,14.18,0,0,1-1.86,3.09,8.5,8.5,0,0,1-.51.73l-.52.49a11,11,0,0,0-1,1.07,1.39,1.39,0,0,1-.27.3l-.53.36-1.06.72-1.86,1.28-.1,0-.35.16-.68.35-1.55.49a21.7,21.7,0,0,1-7.51.32,85.89,85.89,0,0,1-9.14-1.83c-3.06-.84-6.23-1.76-9.17-2.8l-4.37-1.6c-1.43-.45-3.1-1.32-4.64-2l-.69-.3.4-.67c1.52-2.81,3.38-5.45,5.15-8.14s3.62-5,5.68-7.54l3.38-3.86.84-1,.61-.62q.78-.81,1.56-1.5a21.59,21.59,0,0,1,6.31-4.2,7.26,7.26,0,0,0,1.07-.41l1.26-.23.64-.12h.1c1.24.05,2.5-.14,3.7,0a17.62,17.62,0,0,1,6.86,2.1,23.58,23.58,0,0,1,9.69,10.74A23.62,23.62,0,0,1,911.22,348.38Z"/><path class="cls-1" d="M701,143.79a24.23,24.23,0,0,0-3.4-5.43l-.5-.61-.13-.16-.06-.07-.37-.4-.24-.21-1-.86c-.66-.58-1.23-1.15-1.94-1.74-.93-.64-1.89-1.26-2.84-1.85l-1.45-.87-1.4-.58-2.81-1.12-2.87-.7c-7.68-1.72-15.06-.8-22,.41l-5,.92c-1.13.22-2.29.52-3.45.83-.37-.92-.79-1.81-1.15-2.72-1.21-3.15-2.08-6.33-3.14-9.49L645.61,114l2-.88a101.44,101.44,0,0,0,9.81-4.62c3.29-1.75,6.32-3.6,9.42-5.56a99.35,99.35,0,0,0,9-6.63,35.89,35.89,0,0,0,8.22-10c.53-1,1-2.13,1.46-3.2l.54-1.71.25-.86.13-.44,0-.11c-.1.55.17-.86.14-.74l0-.16.36-2.54.19-1.27a8.3,8.3,0,0,0,.11-1.52A32.07,32.07,0,0,0,685,60.22a38.61,38.61,0,0,0-16.69-18.65l-.64-.37L667,41A38.47,38.47,0,0,0,642,41,32.28,32.28,0,0,0,630.74,48a54.33,54.33,0,0,0-4.29,4.95l-.13.15-.36.55-.16.28-.34.55-.65,1.1c-.58,1.18-1.2,2.47-1.64,3.64a36,36,0,0,0-1.9,12.7c0,1,.05,2,.13,3l.05.73,0,.36.06.6.16,1.28.66,5.09c.59,3.48,1.31,7.37,2.18,10.86a102.58,102.58,0,0,0,3.13,10.45l.73,2.12-5,2.27-4.68,2.1-2.34,1-.59.27-.15.06,0,0-.11.05-1.17.44c-.93.35-1.86.68-2.79,1-.51-1-1-2-1.6-3l-2.81-4.54-1.41-2.27c-.59-.92-1-1.47-1.52-2.22-.91-1.38-2.11-2.86-3.27-4.33s-2.47-2.77-3.78-4.12a37.77,37.77,0,0,0-4.43-3.68,29.47,29.47,0,0,0-11-5,39.14,39.14,0,0,0-6.25-.46c-.47,0-.77,0-1.37.08l-1.73.25a26.08,26.08,0,0,0-3.19.78A20.75,20.75,0,0,0,558.49,93a13,13,0,0,0-.75,1.13l-.86,1.51c-.61,1.06-.89,1.86-1.35,2.81a40,40,0,0,0-1.9,5.72,20.23,20.23,0,0,0-.52,7l.15,1.06,0,.26,0,.13c-.06-.19.11.42.09.38l.09.31.36,1.23.18.62.31.82.68,1.66a23.39,23.39,0,0,0,8.78,10.14A31.39,31.39,0,0,0,575.72,132a54.49,54.49,0,0,0,11.57.41,104.77,104.77,0,0,0,21.44-4c.93-.26,1.85-.55,2.78-.83,2.8,5.44,4.82,11.76,7,17.65l-15.72,8.67-18.14,9.67,19.13-7.63,16-7,5.51,16.57,7.12,19.29-5-20-4.07-17.44c5.93-2.37,11.49-4.92,17.79-6.62.41.87.81,1.74,1.24,2.61A104.79,104.79,0,0,0,653.72,162a54.38,54.38,0,0,0,8,8.33,31.41,31.41,0,0,0,11.11,6,23.37,23.37,0,0,0,13.39-.25,24.27,24.27,0,0,0,3-1.18l1.43-.69.36-.17.6-.36.06-.05.13-.09.52-.37a19.12,19.12,0,0,0,2.77-2.45,29.66,29.66,0,0,0,2.11-2.65A34.52,34.52,0,0,0,702.33,157l.2-.83,0-.1.06-.42,0-.16,0-.31.13-1.28A21.16,21.16,0,0,0,701,143.79Zm-96-28a98.89,98.89,0,0,1-18.74,4.1c-6.11.66-12.23.27-16.37-2.09a11.91,11.91,0,0,1-4.7-4.94l-.34-.7a3,3,0,0,1-.18-.36l-.21-.61-.41-1.22,0-.1h0v0a1.5,1.5,0,0,0,0-.22,10.21,10.21,0,0,1,.16-3.18,30.35,30.35,0,0,1,1.17-4.06c.26-.6.54-1.44.78-1.86l.35-.76c.11-.25.42-.69.63-1a11.08,11.08,0,0,1,5.36-4.34c.57-.19,1.24-.44,1.76-.56l.8-.19c.24-.07.8-.09,1.19-.14a35.47,35.47,0,0,1,4,0,20.41,20.41,0,0,1,7.77,3c5,3.06,9.23,8.21,13.07,13.52l2.92,4c.38.55.75,1.13,1.11,1.72Zm17.31,27.32c-.71-2.83-1.49-5.54-2.25-8.32a73.35,73.35,0,0,0-3.06-9l1.88-.63,1.24-.43.31-.11.58-.23.59-.25,2.36-1,4.74-2,4.17-1.78,1.5,4.36c1.2,3.29,2.25,6.7,3.58,9.9.26.62.54,1.22.8,1.83A143.6,143.6,0,0,0,622.31,143.14Zm19.73-43-.69.32-.23-.75c-1.06-3-1.78-6.16-2.6-9.27s-1.25-6-1.79-9.27l-.62-5.1L636,74.74l0-.86a20,20,0,0,1-.08-2.17,21.3,21.3,0,0,1,1.1-7.49,7.83,7.83,0,0,0,.42-1.07l.66-1.1.34-.55,0,0,0,0c.86-.88,1.57-1.94,2.46-2.76A17.52,17.52,0,0,1,647,55a23.59,23.59,0,0,1,14.63.06,23.47,23.47,0,0,1,9.65,10.75,13.61,13.61,0,0,1,1.05,3.45c.06.28.18.6.21.86v.72a9.91,9.91,0,0,0,.15,1.43,1.54,1.54,0,0,1,0,.4l-.09.64-.17,1.27-.3,2.24,0,.1-.12.37-.2.74-.66,1.48a21.65,21.65,0,0,1-4.79,5.78,84,84,0,0,1-7.48,5.57c-2.67,1.72-5.47,3.46-8.21,5L646.6,98C645.3,98.72,643.55,99.38,642,100.09Zm47.89,43.85c.12.14.07.08,0,0Zm2.68,8.62-.19,1.27,0,.23,0,0-.13.41a24.2,24.2,0,0,1-3.76,7.28c-.38.42-.9,1.13-1.14,1.32s-.13.35-1.09.92l-.39.25-.11.05-.91.38a12.93,12.93,0,0,1-1.78.61,11.82,11.82,0,0,1-6.85-.17c-4.51-1.5-8.9-5.79-12.49-10.77a96.49,96.49,0,0,1-9.5-16.66v0c.58-.11,1.16-.21,1.76-.29l5.11-.53c6.56-.73,13.16-1,18.82.66l2.09.63,1.9.92,1,.43.7.53c.48.34,1,.66,1.46.95.58.53,1.2,1.2,1.79,1.8l.86.89,0,0,.07.1.28.4a14.42,14.42,0,0,1,1.84,3.37,12.44,12.44,0,0,1,.74,3.53C692.67,151.75,692.6,151.94,692.61,152.56Z"/><path class="cls-1" d="M473.89,161.35a310.1,310.1,0,1,1-219.28,90.82,308.08,308.08,0,0,1,219.28-90.82m0-8.59c-176,0-318.69,142.68-318.69,318.7S297.88,790.15,473.89,790.15s318.7-142.69,318.7-318.69-142.69-318.7-318.7-318.7Z"/><path class="cls-1" d="M473.89,185.17A286.28,286.28,0,1,1,271.46,269a284.39,284.39,0,0,1,202.43-83.85m0-7.93C311.4,177.24,179.68,309,179.68,471.46S311.4,765.67,473.89,765.67,768.1,633.94,768.1,471.46,636.38,177.24,473.89,177.24Z"/><path class="cls-1" d="M471.52,378.17a104,104,0,0,1,42.53,40.88q15.06,26.31,15.06,60.73,0,34.1-15.06,60.57a103.36,103.36,0,0,1-42.7,41Q443.72,596,407.31,596H320.26V363.61h87.05Q444,363.61,471.52,378.17ZM453.65,529.43a54.82,54.82,0,0,0,11.65-16.84q6.22-13.88,6.22-32.81,0-32.1-17.87-50t-50-17.87H376.86V547h26.81Q435.77,547,453.65,529.43Z"/><path class="cls-1" d="M543.12,362.78V536.65c0,10.59.35,21.24,0,31.82-1.14,31.94-39.44,37.93-64.73,39.28-34.66,1.85-69.76.3-104.48.3H316.53v47.09H436.64c23.11,0,46.21.54,69.32.05,21.07-.45,40.27-1.44,58.4-13.37,10.39-6.84,20.82-14.5,28-24.82,7.42-10.65,7.38-23.28,7-35.77-.83-30.2-.38-60.43-.38-90.63V362.34Z"/><path class="cls-1" d="M631.14,308.5s0,0,0,0a1.3,1.3,0,0,0,.1-.52v0a.7.7,0,0,0,0-.14,1.36,1.36,0,0,0-.1-.36c0-.06-.07-.11-.1-.16a1.49,1.49,0,0,0-.23-.27l0-.06-25-19.14a2,2,0,0,0-.32-.17l-.05,0a1.54,1.54,0,0,0-.42-.07H540.89a1.54,1.54,0,0,0-.42.07l0,0a1.1,1.1,0,0,0-.32.17l-25,19.14,0,.06a1.44,1.44,0,0,0-.22.27.91.91,0,0,0-.11.16,1.39,1.39,0,0,0-.09.35,1.13,1.13,0,0,0,0,.15v0a1.5,1.5,0,0,0,.1.52l0,0a1.12,1.12,0,0,0,.3.41l0,0,38.37,34.26h0l18.65,16.65.06,0a1.2,1.2,0,0,0,.27.16l0,0,0,0h0a1.25,1.25,0,0,0,.42.08,1.16,1.16,0,0,0,.42-.08h0l0,0,0,0a2.26,2.26,0,0,0,.26-.16s0,0,.06,0l57-50.91,0,0A1.73,1.73,0,0,0,631.14,308.5Zm-55.25,45.85,4-10.57,25.21-26.24-14.58,23.83Zm-20.58-13L540.8,317.54l25.1,26.26,4,10.58Zm-14.27-51,12.54,6.16-18.71,9.29.59-11.17Zm69.36,4.28.6,11.17-18.72-9.29,12.54-6.16Zm-15.26,12-3.2-7.39,14.9,7.39Zm-20.67,2.62h17.82L579.4,338.59Zm-8,29.32-12.89-29.32H571.4Zm22.31-40.11,3.54,8.17H577.08Zm-15.84,7.89-13.8-9.64,13.8-6.46,13.8,6.46Zm-4.15.28H553.56l3.53-8.17Zm-18.06,0H539l14.89-7.39Zm0,2.62,12.13,27.57-26.35-27.57Zm22.2,6.52L577.5,343l-4.57,12.21L568.36,343Zm22.2-6.52h14.23L583,336.84Zm-5.81-14.22-10.51-4.92h20.53Zm-32.78,0-10-4.92h20.53Zm-24.32,11.6H519.76l13-9.94Zm.5,2.62,15.92,26.17-29.31-26.17Zm80.42,0h13.39l-29.31,26.17Zm.5-2.62-.53-9.94,13,9.94Z"/><path class="cls-1" d="M1269.1,246.6A170,170,0,0,0,1236.69,266c-38.85,29.68-50.48,65.81-76,112a596.13,596.13,0,0,1-58,86,97.73,97.73,0,0,1-74,26A21.27,21.27,0,0,1,1014,454a27.83,27.83,0,0,1,6.72-4c9-3.72,17.57-1.54,27,1a95.52,95.52,0,0,1,23.2,9.72A309.38,309.38,0,0,0,1192.69,499c7.41.16,66.72.56,97-41,33.13-45.47,20.41-125.88-44-176a203.28,203.28,0,0,0-63-24,199.67,199.67,0,0,0-77.56-.24c-12.12,2.44-31.1,6.43-52.44,19.24a148.34,148.34,0,0,0-33,27c-1.32,1.65-16.55,21.31-9,46,6.95,22.73,27.48,31,30,32,2.41.78,28.5,8.72,50-8,14.2-11,18-26.31,19-31a3.58,3.58,0,0,0-5.36-3.57c-1.76,6.09-6.26,18.2-17.64,27.57a40.71,40.71,0,0,1-17,9,41.7,41.7,0,0,1-18,0c-3.93-.85-15-3.23-22-12-7.79-9.76-8.29-24.62-2-38a113.06,113.06,0,0,1,27-33c19.33-16,38.85-21,51-24,14-3.42,56.88-13.88,103,8,5.28,2.5,65.63,32.31,78,96a122.07,122.07,0,0,1,1,40,87.32,87.32,0,0,1-74.42,76.75,203.49,203.49,0,0,1-33.58-.75,206.51,206.51,0,0,1-39-8c-17.67-5.44-31.57-12.33-41-17-4.93-2.44-13.89-7-25-12-1.47-.66-5.64-2.44-14-6-5.36-2.29-7.26-3.09-10-4a79.72,79.72,0,0,0-12-3c-27.61-6.36-49.49,9.59-51,25-1.05,10.85,7.84,22.86,21,30a94.12,94.12,0,0,0,95.66-17.54A230.17,230.17,0,0,0,1139.69,443c13.16-15.42,20-27.59,29-43,9.91-16.89,37.68-64.07,66-103,7.63-10.48,19.36-25.94,35-44,2.8-2.37,3.78-4.95,3-6S1269.49,246.51,1269.1,246.6Z"/></g></g></svg>